<?xml version="1.0" standalone="no"?>
<!DOCTYPE svg PUBLIC "-//W3C//DTD SVG 20010904//EN"
 "http://www.w3.org/TR/2001/REC-SVG-20010904/DTD/svg10.dtd">
<svg version="1.0" xmlns="http://www.w3.org/2000/svg"
 width="700.000000pt" height="700.000000pt" viewBox="0 0 700.000000 700.000000"
 preserveAspectRatio="xMidYMid meet">
<metadata>
Created by potrace 1.14, written by Peter Selinger 2001-2017
</metadata>
<g transform="translate(0.000000,700.000000) scale(0.100000,-0.100000)"
fill="#000000" stroke="none">
<path d="M3180 6980 c0 -3 -15 -6 -32 -6 -37 -1 -153 -12 -185 -18 -12 -3 -43
-8 -70 -12 -47 -6 -61 -9 -105 -19 -13 -3 -36 -8 -53 -11 -16 -3 -57 -12 -90
-21 -33 -8 -67 -17 -75 -18 -8 -2 -15 -4 -15 -5 0 -1 -9 -3 -20 -5 -43 -9
-294 -96 -368 -129 -18 -7 -47 -19 -64 -26 -18 -7 -33 -17 -33 -23 0 -6 -3 -7
-6 -4 -7 7 -227 -102 -232 -115 -2 -5 -9 -8 -16 -8 -6 0 -35 -16 -65 -35 -29
-19 -55 -35 -57 -35 -7 0 -191 -128 -239 -165 -170 -133 -187 -148 -330 -284
-40 -39 -122 -126 -210 -225 -6 -6 -30 -36 -55 -66 -25 -30 -48 -56 -52 -58
-5 -2 -8 -10 -8 -17 0 -7 -3 -15 -8 -17 -12 -5 -112 -146 -112 -158 0 -5 -4
-10 -8 -10 -5 0 -14 -10 -21 -22 -6 -13 -19 -35 -29 -50 -87 -133 -199 -348
-280 -539 -66 -155 -160 -451 -188 -594 -2 -11 -8 -42 -14 -70 -17 -81 -20
-98 -26 -145 -3 -25 -8 -54 -11 -65 -2 -11 -6 -40 -8 -65 -2 -25 -7 -67 -11
-95 -9 -67 -10 -614 -1 -690 4 -33 9 -80 12 -105 6 -60 17 -131 35 -220 5 -30
13 -68 16 -85 3 -16 15 -66 26 -110 11 -44 21 -84 22 -90 13 -56 88 -292 106
-330 5 -11 25 -60 45 -110 72 -178 277 -561 307 -573 4 -2 8 -8 8 -14 0 -15
195 -280 219 -298 3 -3 19 -23 36 -45 37 -50 303 -317 368 -371 27 -21 62 -51
78 -66 16 -16 32 -28 34 -28 5 0 37 -26 60 -47 8 -7 16 -13 20 -13 4 0 13 -6
20 -12 27 -25 40 -34 73 -53 17 -11 32 -23 32 -27 0 -4 5 -8 11 -8 5 0 36 -17
67 -38 32 -20 66 -43 77 -50 11 -7 32 -18 48 -25 15 -6 27 -15 27 -20 0 -4 4
-6 9 -2 6 3 13 -1 18 -9 4 -8 10 -15 13 -15 19 -3 70 -27 70 -33 0 -4 5 -8 10
-8 6 0 45 -17 88 -37 42 -21 79 -38 82 -39 3 0 19 -7 35 -14 17 -7 32 -14 35
-15 10 -4 46 -17 65 -25 57 -23 134 -52 146 -54 8 -2 21 -6 29 -9 8 -3 35 -12
60 -18 25 -7 47 -13 50 -14 3 -1 19 -5 35 -9 17 -4 37 -10 45 -13 8 -3 24 -7
35 -8 11 -1 40 -8 65 -15 25 -7 59 -14 75 -14 17 -1 32 -4 35 -7 3 -4 28 -9
55 -13 28 -3 60 -8 72 -10 21 -4 142 -17 193 -20 14 0 28 -5 32 -11 5 -6 8 -6
8 1 0 8 11 10 33 5 40 -8 355 -6 457 4 123 11 143 13 185 20 22 3 54 8 70 11
17 2 53 9 80 14 28 5 61 12 75 14 14 3 25 5 25 6 0 1 7 3 15 5 8 2 26 6 40 9
48 10 70 16 140 35 178 50 535 195 620 251 8 6 26 16 40 22 14 7 37 20 52 31
16 10 28 16 28 12 0 -3 6 -1 13 5 6 5 77 53 156 106 79 53 150 101 157 107 15
13 20 18 84 67 254 196 562 541 742 830 22 36 50 79 61 95 29 41 186 354 221
440 37 89 72 185 95 255 22 66 55 173 56 180 5 33 40 158 46 166 5 6 6 13 4
16 -3 3 -1 25 5 49 6 24 12 60 15 79 2 19 7 46 10 60 2 13 7 40 9 60 3 19 8
55 12 80 39 275 33 740 -12 1000 -2 14 -7 43 -10 65 -31 205 -134 567 -213
750 -86 199 -241 505 -271 535 -3 3 -45 65 -94 138 -48 72 -92 132 -97 132 -4
0 -10 8 -13 18 -4 9 -19 31 -34 48 -15 17 -40 49 -57 70 -104 131 -391 410
-499 483 -12 8 -23 17 -26 20 -15 17 -90 71 -99 71 -5 0 -11 4 -13 8 -3 8
-153 112 -161 112 -2 0 -35 20 -72 45 -37 24 -71 42 -76 40 -4 -3 -9 -1 -11 4
-4 11 -190 106 -200 103 -5 -1 -8 3 -8 10 0 6 -2 9 -6 6 -3 -3 -33 8 -67 24
-34 17 -66 31 -72 33 -12 2 -41 13 -70 25 -55 23 -135 49 -135 44 0 -4 -6 -1
-13 5 -8 6 -17 8 -20 4 -4 -3 -7 0 -7 7 0 7 -3 11 -6 8 -3 -3 -33 3 -67 14
-34 10 -71 21 -82 23 -11 3 -29 7 -40 10 -40 9 -221 46 -245 50 -14 2 -48 6
-75 10 -28 4 -61 8 -75 11 -103 15 -610 27 -610 14z m485 -405 c86 -9 110 -12
110 -14 0 -1 23 -4 52 -6 29 -2 56 -6 62 -9 5 -4 26 -7 46 -8 19 -1 35 -4 35
-7 0 -3 10 -7 23 -7 12 -1 33 -4 47 -8 14 -3 48 -11 75 -17 28 -6 55 -14 60
-18 6 -3 19 -7 30 -8 23 -4 205 -63 220 -72 6 -3 12 -6 15 -7 12 -2 73 -27
145 -60 22 -10 42 -19 45 -19 6 -1 116 -58 167 -86 78 -43 209 -125 227 -141
11 -10 25 -18 32 -18 7 0 14 -3 16 -7 2 -5 37 -33 78 -65 223 -168 429 -373
585 -583 33 -44 62 -82 65 -85 8 -7 125 -190 147 -230 69 -124 116 -212 118
-220 1 -3 14 -32 29 -65 41 -89 117 -282 132 -335 2 -8 15 -55 29 -105 15 -49
28 -101 31 -115 3 -14 7 -33 10 -42 5 -16 9 -35 19 -88 3 -14 7 -36 10 -50 3
-14 8 -38 10 -55 2 -16 6 -46 9 -65 25 -167 31 -257 31 -465 -1 -239 -16 -415
-51 -589 -2 -11 -7 -34 -10 -51 -35 -198 -162 -578 -239 -717 -8 -14 -15 -33
-15 -41 0 -9 -3 -17 -7 -19 -5 -1 -21 -30 -38 -63 -27 -53 -125 -220 -165
-280 -8 -12 -24 -35 -35 -51 -139 -206 -362 -449 -560 -608 -33 -27 -62 -52
-65 -55 -20 -26 -315 -220 -376 -248 -22 -10 -41 -21 -44 -24 -8 -11 -224
-112 -237 -112 -7 0 -13 -4 -13 -8 0 -4 -10 -9 -23 -13 -13 -3 -41 -13 -63
-22 -21 -10 -43 -18 -49 -19 -5 -1 -17 -4 -25 -7 -21 -9 -112 -39 -130 -43 -8
-2 -28 -9 -45 -15 -16 -6 -42 -13 -57 -15 -15 -2 -44 -8 -65 -14 -21 -6 -49
-12 -63 -15 -14 -3 -36 -8 -50 -11 -14 -3 -45 -8 -70 -10 -25 -2 -45 -5 -45
-6 0 -1 -9 -3 -20 -4 -11 -1 -42 -5 -69 -9 -169 -24 -460 -24 -656 -1 -14 1
-25 3 -25 4 0 1 -18 4 -40 6 -78 7 -200 29 -200 35 0 1 -11 3 -25 5 -20 2 -96
21 -195 49 -37 10 -149 48 -195 66 -30 12 -61 22 -67 23 -7 0 -13 3 -13 7 0 4
-17 12 -37 18 -47 14 -276 131 -349 177 -30 19 -59 35 -64 35 -6 0 -10 5 -10
10 0 6 -5 10 -12 10 -6 0 -20 7 -30 17 -10 9 -27 21 -37 27 -38 22 -137 94
-168 122 -17 16 -42 37 -56 48 -82 59 -298 277 -413 416 -41 51 -188 256 -221
310 -55 89 -193 346 -191 353 0 1 -9 23 -20 48 -49 108 -153 407 -166 476 -2
15 -9 43 -15 62 -6 18 -10 36 -9 40 0 3 -1 8 -2 11 -3 9 -8 35 -15 75 -3 22
-8 47 -11 56 -2 9 -7 34 -9 55 -7 53 -15 106 -19 131 -24 124 -25 650 -1 743
2 8 7 42 10 75 9 79 17 122 50 280 15 73 56 216 88 305 10 30 20 60 22 65 2
11 4 15 58 150 64 158 246 493 281 517 6 4 7 8 3 8 -4 0 -3 6 3 13 6 6 29 37
51 67 70 96 83 113 138 180 257 310 611 592 956 761 28 13 53 28 56 32 3 4 16
9 27 10 12 1 22 5 22 9 0 4 5 8 11 8 6 0 25 7 42 15 86 40 331 123 407 139 14
3 52 12 85 20 33 8 78 17 100 21 22 4 54 9 70 12 17 4 42 7 58 7 15 1 27 3 27
6 0 3 12 5 28 6 46 1 164 12 167 16 6 6 358 0 430 -7z"/>
<path d="M3430 6203 c0 -4 -39 -8 -88 -9 -48 0 -121 -4 -162 -8 -41 -5 -88
-10 -105 -11 -16 -2 -30 -4 -30 -5 0 -1 -13 -4 -30 -6 -16 -2 -64 -12 -105
-21 -41 -9 -82 -17 -90 -18 -8 -1 -22 -5 -30 -8 -8 -3 -42 -14 -75 -23 -33 -9
-100 -32 -150 -51 -49 -19 -94 -35 -100 -37 -15 -4 -215 -101 -262 -128 l-42
-24 61 -105 c33 -57 70 -120 80 -139 11 -19 49 -83 84 -143 35 -59 64 -112 64
-117 0 -6 4 -10 9 -10 5 0 14 -15 22 -32 19 -47 28 -50 79 -23 96 51 257 118
340 140 46 13 180 44 210 49 19 3 46 8 59 10 40 9 182 17 271 17 119 -1 260
-14 355 -35 63 -14 114 -26 127 -31 12 -5 20 5 32 37 12 33 74 229 81 258 1 3
5 12 8 20 5 11 30 96 42 140 1 3 4 12 8 20 16 41 55 176 51 181 -2 4 -21 10
-41 14 -21 4 -42 10 -48 13 -5 4 -14 7 -20 8 -5 1 -35 7 -65 13 -118 24 -142
29 -200 36 -25 3 -65 8 -90 11 -25 3 -86 7 -136 8 -50 2 -96 6 -102 10 -7 4
-12 4 -12 -1z"/>
<path d="M4321 5993 c-6 -21 -25 -81 -42 -133 -64 -196 -149 -472 -149 -484 0
-6 39 -29 87 -51 76 -35 299 -165 313 -183 3 -4 32 -27 65 -52 64 -48 254
-234 295 -288 14 -18 33 -43 44 -55 77 -92 223 -352 275 -492 13 -33 27 -69
32 -80 14 -31 68 -236 73 -275 3 -19 5 -35 6 -35 2 0 6 -23 14 -77 19 -122 25
-361 11 -482 -4 -33 -8 -74 -10 -91 -2 -16 -6 -43 -10 -60 -3 -16 -8 -42 -10
-57 -2 -15 -8 -44 -14 -65 -6 -21 -12 -49 -15 -63 -2 -14 -13 -52 -23 -85
l-19 -60 55 -24 c31 -13 79 -34 106 -46 28 -12 67 -28 88 -36 20 -7 37 -17 37
-21 0 -4 3 -7 8 -6 4 2 72 -25 152 -59 80 -34 151 -63 159 -65 8 -2 20 17 33
52 19 54 72 251 81 300 44 237 52 324 52 575 0 257 -7 338 -51 571 -2 11 -15
65 -29 120 -15 54 -28 106 -30 114 -26 112 -151 405 -238 560 -50 88 -169 273
-187 290 -3 3 -21 25 -40 50 -56 73 -62 80 -125 149 -72 78 -164 168 -223 219
-24 20 -55 47 -68 60 -13 13 -24 21 -24 18 0 -3 -12 6 -27 20 -35 32 -242 170
-306 204 -26 13 -47 29 -47 34 0 5 -2 7 -5 4 -3 -3 -49 16 -102 43 -53 27
-100 46 -105 43 -4 -3 -8 0 -8 5 0 6 -9 11 -19 11 -11 0 -23 5 -26 10 -12 19
-24 10 -34 -27z"/>
<path d="M1933 5703 c-128 -96 -195 -155 -303 -264 -99 -101 -150 -159 -150
-170 0 -5 -4 -9 -8 -9 -4 0 -25 -24 -47 -52 -21 -29 -44 -57 -49 -63 -6 -5
-31 -41 -56 -80 -25 -38 -48 -71 -52 -73 -5 -2 -8 -10 -8 -18 0 -8 -3 -14 -7
-14 -5 0 -13 -10 -19 -23 -6 -12 -38 -73 -72 -135 -115 -214 -207 -465 -257
-694 -18 -86 -20 -94 -30 -158 -12 -83 -14 -95 -20 -150 -10 -90 -15 -174 -10
-190 4 -13 48 -15 329 -15 179 0 327 3 330 5 3 3 7 37 10 75 5 73 13 133 21
175 3 14 8 39 11 55 2 17 7 38 10 47 3 9 6 25 8 35 12 61 39 148 79 255 27 69
126 279 137 288 3 3 19 28 35 55 94 165 328 421 498 545 l34 24 -49 79 c-26
43 -48 80 -48 82 0 2 -40 71 -90 155 -49 84 -90 156 -90 161 0 5 -4 9 -10 9
-5 0 -10 5 -10 12 0 14 -50 88 -60 88 -3 0 -29 -17 -57 -37z"/>
<path d="M845 3382 c-6 -16 2 -132 16 -237 6 -44 13 -93 15 -110 9 -70 77
-355 89 -376 4 -5 8 -19 10 -31 3 -13 11 -39 19 -58 8 -19 26 -66 41 -105 42
-109 76 -181 158 -335 57 -106 188 -299 266 -390 12 -14 34 -40 49 -58 41 -50
213 -222 267 -267 27 -22 53 -45 59 -50 6 -6 32 -26 59 -45 26 -18 47 -37 47
-41 0 -4 10 -11 22 -15 12 -3 28 -12 35 -18 29 -26 42 -34 113 -76 41 -25 77
-47 80 -50 9 -11 234 -118 315 -150 132 -52 328 -112 410 -125 11 -2 34 -6 50
-9 59 -12 101 -18 130 -21 17 -2 55 -7 85 -10 111 -14 564 -6 590 10 3 2 33 7
65 10 33 4 64 9 68 12 5 3 23 7 40 10 18 2 57 11 87 19 81 22 88 24 109 28 11
3 30 10 43 17 13 7 24 11 26 10 6 -6 92 24 92 31 0 4 3 7 8 5 21 -7 322 134
394 184 14 11 28 19 31 19 11 0 231 152 252 174 6 6 28 24 49 40 22 16 54 43
71 60 18 17 55 52 81 77 73 70 142 144 220 239 74 90 78 95 150 205 25 39 54
82 64 96 25 35 115 206 145 273 l24 54 -47 17 c-26 10 -69 28 -97 40 -144 64
-265 115 -274 115 -6 0 -11 4 -11 10 0 5 -3 9 -7 9 -5 -1 -11 0 -15 1 -5 1
-11 3 -15 4 -5 1 -25 10 -45 19 -21 9 -53 24 -72 32 l-34 14 -42 -81 c-162
-314 -396 -577 -682 -764 -86 -57 -318 -175 -329 -168 -4 2 -10 0 -14 -5 -6
-11 -169 -65 -230 -77 -51 -10 -54 -11 -57 -14 -6 -4 -78 -16 -168 -28 -113
-14 -511 -5 -541 13 -4 3 -22 7 -42 10 -19 3 -75 17 -123 31 -49 13 -96 26
-104 28 -8 3 -17 5 -20 6 -3 1 -8 2 -12 1 -5 0 -8 3 -8 7 0 4 -8 8 -19 9 -37
3 -288 132 -387 199 -136 93 -171 122 -289 240 -121 122 -126 128 -204 233
-124 168 -232 380 -296 581 -30 91 -35 115 -59 230 -16 74 -23 122 -32 230 -3
30 -6 59 -8 65 -1 6 -127 10 -329 10 -256 0 -328 -3 -332 -13z"/>
</g>
</svg>
