<svg width="176" height="72" viewBox="0 0 176 72" fill="none" xmlns="http://www.w3.org/2000/svg">
<path d="M0 12C0 5.37258 5.37258 0 12 0H164C170.627 0 176 5.37258 176 12V60C176 66.6274 170.627 72 164 72H12C5.37258 72 0 66.6274 0 60V12Z" fill="#00FFFF"/>
<path d="M51.2285 42.112C50.4072 42.112 49.6712 41.9787 49.0205 41.712C48.3698 41.4453 47.8472 41.0507 47.4525 40.528C47.0685 40.0053 46.8658 39.376 46.8445 38.64H49.7565C49.7992 39.056 49.9432 39.376 50.1885 39.6C50.4338 39.8133 50.7538 39.92 51.1485 39.92C51.5538 39.92 51.8738 39.8293 52.1085 39.648C52.3432 39.456 52.4605 39.1947 52.4605 38.864C52.4605 38.5867 52.3645 38.3573 52.1725 38.176C51.9912 37.9947 51.7618 37.8453 51.4845 37.728C51.2178 37.6107 50.8338 37.4773 50.3325 37.328C49.6072 37.104 49.0152 36.88 48.5565 36.656C48.0978 36.432 47.7032 36.1013 47.3725 35.664C47.0418 35.2267 46.8765 34.656 46.8765 33.952C46.8765 32.9067 47.2552 32.0907 48.0125 31.504C48.7698 30.9067 49.7565 30.608 50.9725 30.608C52.2098 30.608 53.2072 30.9067 53.9645 31.504C54.7218 32.0907 55.1272 32.912 55.1805 33.968H52.2205C52.1992 33.6053 52.0658 33.3227 51.8205 33.12C51.5752 32.9067 51.2605 32.8 50.8765 32.8C50.5458 32.8 50.2792 32.8907 50.0765 33.072C49.8738 33.2427 49.7725 33.4933 49.7725 33.824C49.7725 34.1867 49.9432 34.4693 50.2845 34.672C50.6258 34.8747 51.1592 35.0933 51.8845 35.328C52.6098 35.5733 53.1965 35.808 53.6445 36.032C54.1032 36.256 54.4978 36.5813 54.8285 37.008C55.1592 37.4347 55.3245 37.984 55.3245 38.656C55.3245 39.296 55.1592 39.8773 54.8285 40.4C54.5085 40.9227 54.0392 41.3387 53.4205 41.648C52.8018 41.9573 52.0712 42.112 51.2285 42.112ZM65.9843 33.072V42H63.2483V40.784C62.9709 41.1787 62.5923 41.4987 62.1123 41.744C61.6429 41.9787 61.1203 42.096 60.5443 42.096C59.8616 42.096 59.2589 41.9467 58.7363 41.648C58.2136 41.3387 57.8083 40.896 57.5203 40.32C57.2323 39.744 57.0883 39.0667 57.0883 38.288V33.072H59.8083V37.92C59.8083 38.5173 59.9629 38.9813 60.2723 39.312C60.5816 39.6427 60.9976 39.808 61.5203 39.808C62.0536 39.808 62.4749 39.6427 62.7843 39.312C63.0936 38.9813 63.2483 38.5173 63.2483 37.92V33.072H65.9843ZM70.8455 34.336C71.1015 33.92 71.4695 33.584 71.9495 33.328C72.4295 33.072 72.9788 32.944 73.5975 32.944C74.3335 32.944 75.0002 33.1307 75.5975 33.504C76.1948 33.8773 76.6642 34.4107 77.0055 35.104C77.3575 35.7973 77.5335 36.6027 77.5335 37.52C77.5335 38.4373 77.3575 39.248 77.0055 39.952C76.6642 40.6453 76.1948 41.184 75.5975 41.568C75.0002 41.9413 74.3335 42.128 73.5975 42.128C72.9682 42.128 72.4188 42.0053 71.9495 41.76C71.4802 41.504 71.1122 41.168 70.8455 40.752V42H68.1095V30.16H70.8455V34.336ZM74.7495 37.52C74.7495 36.8373 74.5575 36.304 74.1735 35.92C73.8002 35.5253 73.3362 35.328 72.7815 35.328C72.2375 35.328 71.7735 35.5253 71.3895 35.92C71.0162 36.3147 70.8295 36.8533 70.8295 37.536C70.8295 38.2187 71.0162 38.7573 71.3895 39.152C71.7735 39.5467 72.2375 39.744 72.7815 39.744C73.3255 39.744 73.7895 39.5467 74.1735 39.152C74.5575 38.7467 74.7495 38.2027 74.7495 37.52ZM82.7609 42.128C81.9822 42.128 81.2889 41.9947 80.6809 41.728C80.0729 41.4613 79.5929 41.0987 79.2409 40.64C78.8889 40.1707 78.6915 39.648 78.6489 39.072H81.3529C81.3849 39.3813 81.5289 39.632 81.7849 39.824C82.0409 40.016 82.3555 40.112 82.7289 40.112C83.0702 40.112 83.3315 40.048 83.5129 39.92C83.7049 39.7813 83.8009 39.6053 83.8009 39.392C83.8009 39.136 83.6675 38.9493 83.4009 38.832C83.1342 38.704 82.7022 38.5653 82.1049 38.416C81.4649 38.2667 80.9315 38.112 80.5049 37.952C80.0782 37.7813 79.7102 37.52 79.4009 37.168C79.0915 36.8053 78.9369 36.32 78.9369 35.712C78.9369 35.2 79.0755 34.736 79.3529 34.32C79.6409 33.8933 80.0569 33.5573 80.6009 33.312C81.1555 33.0667 81.8115 32.944 82.5689 32.944C83.6889 32.944 84.5689 33.2213 85.2089 33.776C85.8595 34.3307 86.2329 35.0667 86.3289 35.984H83.8009C83.7582 35.6747 83.6195 35.4293 83.3849 35.248C83.1609 35.0667 82.8622 34.976 82.4889 34.976C82.1689 34.976 81.9235 35.04 81.7529 35.168C81.5822 35.2853 81.4969 35.4507 81.4969 35.664C81.4969 35.92 81.6302 36.112 81.8969 36.24C82.1742 36.368 82.6009 36.496 83.1769 36.624C83.8382 36.7947 84.3769 36.9653 84.7929 37.136C85.2089 37.296 85.5715 37.5627 85.8809 37.936C86.2009 38.2987 86.3662 38.7893 86.3769 39.408C86.3769 39.9307 86.2275 40.4 85.9289 40.816C85.6409 41.2213 85.2195 41.5413 84.6649 41.776C84.1209 42.0107 83.4862 42.128 82.7609 42.128ZM87.6668 37.536C87.6668 36.608 87.8534 35.7973 88.2268 35.104C88.6108 34.4107 89.1388 33.8773 89.8108 33.504C90.4934 33.1307 91.2721 32.944 92.1468 32.944C93.2668 32.944 94.2001 33.2373 94.9468 33.824C95.7041 34.4107 96.2001 35.2373 96.4348 36.304H93.5228C93.2774 35.6213 92.8028 35.28 92.0988 35.28C91.5974 35.28 91.1974 35.4773 90.8988 35.872C90.6001 36.256 90.4508 36.8107 90.4508 37.536C90.4508 38.2613 90.6001 38.8213 90.8988 39.216C91.1974 39.6 91.5974 39.792 92.0988 39.792C92.8028 39.792 93.2774 39.4507 93.5228 38.768H96.4348C96.2001 39.8133 95.7041 40.6347 94.9468 41.232C94.1894 41.8293 93.2561 42.128 92.1468 42.128C91.2721 42.128 90.4934 41.9413 89.8108 41.568C89.1388 41.1947 88.6108 40.6613 88.2268 39.968C87.8534 39.2747 87.6668 38.464 87.6668 37.536ZM100.794 34.56C101.114 34.0693 101.514 33.6853 101.994 33.408C102.474 33.12 103.008 32.976 103.594 32.976V35.872H102.842C102.16 35.872 101.648 36.0213 101.306 36.32C100.965 36.608 100.794 37.12 100.794 37.856V42H98.0582V33.072H100.794V34.56ZM106.438 32.144C105.958 32.144 105.563 32.0053 105.254 31.728C104.955 31.44 104.806 31.088 104.806 30.672C104.806 30.2453 104.955 29.8933 105.254 29.616C105.563 29.328 105.958 29.184 106.438 29.184C106.907 29.184 107.291 29.328 107.59 29.616C107.899 29.8933 108.054 30.2453 108.054 30.672C108.054 31.088 107.899 31.44 107.59 31.728C107.291 32.0053 106.907 32.144 106.438 32.144ZM107.798 33.072V42H105.062V33.072H107.798ZM112.677 34.336C112.933 33.92 113.301 33.584 113.781 33.328C114.261 33.072 114.81 32.944 115.429 32.944C116.165 32.944 116.831 33.1307 117.429 33.504C118.026 33.8773 118.495 34.4107 118.837 35.104C119.189 35.7973 119.365 36.6027 119.365 37.52C119.365 38.4373 119.189 39.248 118.837 39.952C118.495 40.6453 118.026 41.184 117.429 41.568C116.831 41.9413 116.165 42.128 115.429 42.128C114.799 42.128 114.25 42.0053 113.781 41.76C113.311 41.504 112.943 41.168 112.677 40.752V42H109.941V30.16H112.677V34.336ZM116.581 37.52C116.581 36.8373 116.389 36.304 116.005 35.92C115.631 35.5253 115.167 35.328 114.613 35.328C114.069 35.328 113.605 35.5253 113.221 35.92C112.847 36.3147 112.661 36.8533 112.661 37.536C112.661 38.2187 112.847 38.7573 113.221 39.152C113.605 39.5467 114.069 39.744 114.613 39.744C115.157 39.744 115.621 39.5467 116.005 39.152C116.389 38.7467 116.581 38.2027 116.581 37.52ZM129.376 37.392C129.376 37.648 129.36 37.9147 129.328 38.192H123.136C123.179 38.7467 123.355 39.1733 123.664 39.472C123.984 39.76 124.373 39.904 124.832 39.904C125.515 39.904 125.989 39.616 126.256 39.04H129.168C129.019 39.6267 128.747 40.1547 128.352 40.624C127.968 41.0933 127.483 41.4613 126.896 41.728C126.309 41.9947 125.653 42.128 124.928 42.128C124.053 42.128 123.275 41.9413 122.592 41.568C121.909 41.1947 121.376 40.6613 120.992 39.968C120.608 39.2747 120.416 38.464 120.416 37.536C120.416 36.608 120.603 35.7973 120.976 35.104C121.36 34.4107 121.893 33.8773 122.576 33.504C123.259 33.1307 124.043 32.944 124.928 32.944C125.792 32.944 126.56 33.1253 127.232 33.488C127.904 33.8507 128.427 34.368 128.8 35.04C129.184 35.712 129.376 36.496 129.376 37.392ZM126.576 36.672C126.576 36.2027 126.416 35.8293 126.096 35.552C125.776 35.2747 125.376 35.136 124.896 35.136C124.437 35.136 124.048 35.2693 123.728 35.536C123.419 35.8027 123.227 36.1813 123.152 36.672H126.576Z" fill="#2C2C2C"/>
</svg>
