<svg width="622" height="498" viewBox="0 0 622 498" fill="none" xmlns="http://www.w3.org/2000/svg">
<path d="M126.092 32.36C124.172 32.36 122.708 31.82 121.7 30.74C120.692 29.636 120.188 28.064 120.188 26.024V12.776C120.188 10.736 120.692 9.176 121.7 8.096C122.708 6.992 124.172 6.44 126.092 6.44C128.012 6.44 129.476 6.992 130.484 8.096C131.492 9.176 131.996 10.736 131.996 12.776V14.936H128.252V12.524C128.252 10.868 127.568 10.04 126.2 10.04C124.832 10.04 124.148 10.868 124.148 12.524V26.312C124.148 27.944 124.832 28.76 126.2 28.76C127.568 28.76 128.252 27.944 128.252 26.312V21.38H126.272V17.78H131.996V26.024C131.996 28.064 131.492 29.636 130.484 30.74C129.476 31.82 128.012 32.36 126.092 32.36ZM134.898 6.8H145.699V10.4H138.858V17.06H144.295V20.66H138.858V28.4H145.699V32H134.898V6.8ZM151.433 10.4H147.293V6.8H159.533V10.4H155.393V32H151.433V10.4ZM167.936 6.8H172.904L176.756 21.884H176.828V6.8H180.356V32H176.288L171.536 13.604H171.464V32H167.936V6.8ZM189.383 32.36C187.439 32.36 185.951 31.808 184.919 30.704C183.887 29.6 183.371 28.04 183.371 26.024V12.776C183.371 10.76 183.887 9.2 184.919 8.096C185.951 6.992 187.439 6.44 189.383 6.44C191.327 6.44 192.815 6.992 193.847 8.096C194.879 9.2 195.395 10.76 195.395 12.776V26.024C195.395 28.04 194.879 29.6 193.847 30.704C192.815 31.808 191.327 32.36 189.383 32.36ZM189.383 28.76C190.751 28.76 191.435 27.932 191.435 26.276V12.524C191.435 10.868 190.751 10.04 189.383 10.04C188.015 10.04 187.331 10.868 187.331 12.524V26.276C187.331 27.932 188.015 28.76 189.383 28.76ZM201.388 10.4H197.248V6.8H209.488V10.4H205.348V32H201.388V10.4ZM211.766 6.8H215.726V32H211.766V6.8ZM219.051 6.8H229.527V10.4H223.011V17.42H228.123V21.02H223.011V32H219.051V6.8ZM231.786 6.8H235.746V32H231.786V6.8ZM239.072 6.8H249.872V10.4H243.032V17.06H248.468V20.66H243.032V28.4H249.872V32H239.072V6.8ZM252.51 6.8H258.558C260.526 6.8 262.002 7.328 262.986 8.384C263.97 9.44 264.462 10.988 264.462 13.028V25.772C264.462 27.812 263.97 29.36 262.986 30.416C262.002 31.472 260.526 32 258.558 32H252.51V6.8ZM258.486 28.4C259.134 28.4 259.626 28.208 259.962 27.824C260.322 27.44 260.502 26.816 260.502 25.952V12.848C260.502 11.984 260.322 11.36 259.962 10.976C259.626 10.592 259.134 10.4 258.486 10.4H256.47V28.4H258.486ZM272.685 6.8H276.501L278.265 26.168H278.337L280.209 6.8H284.529L286.401 26.168H286.473L288.237 6.8H291.657L289.101 32H284.169L282.369 15.008H282.297L280.497 32H275.241L272.685 6.8ZM294.02 6.8H297.98V17.06H302.228V6.8H306.188V32H302.228V20.66H297.98V32H294.02V6.8ZM309.497 6.8H320.297V10.4H313.457V17.06H318.893V20.66H313.457V28.4H320.297V32H309.497V6.8ZM322.935 6.8H327.903L331.755 21.884H331.827V6.8H335.355V32H331.287L326.535 13.604H326.463V32H322.935V6.8ZM343.848 6.8H347.664L349.428 26.168H349.5L351.372 6.8H355.692L357.564 26.168H357.636L359.4 6.8H362.82L360.264 32H355.332L353.532 15.008H353.46L351.66 32H346.404L343.848 6.8ZM365.183 6.8H375.983V10.4H369.143V17.06H374.579V20.66H369.143V28.4H375.983V32H365.183V6.8ZM384.747 6.8H388.707V28.4H395.223V32H384.747V6.8ZM400.683 6.8H406.047L410.151 32H406.191L405.471 26.996V27.068H400.971L400.251 32H396.579L400.683 6.8ZM405.003 23.648L403.239 11.192H403.167L401.439 23.648H405.003ZM418.121 32.36C416.201 32.36 414.737 31.82 413.729 30.74C412.721 29.636 412.217 28.064 412.217 26.024V6.8H416.177V26.312C416.177 27.176 416.345 27.8 416.681 28.184C417.041 28.568 417.545 28.76 418.193 28.76C418.841 28.76 419.333 28.568 419.669 28.184C420.029 27.8 420.209 27.176 420.209 26.312V6.8H424.025V26.024C424.025 28.064 423.521 29.636 422.513 30.74C421.505 31.82 420.041 32.36 418.121 32.36ZM427.206 6.8H432.174L436.026 21.884H436.098V6.8H439.626V32H435.558L430.806 13.604H430.734V32H427.206V6.8ZM448.509 32.36C446.613 32.36 445.161 31.82 444.153 30.74C443.169 29.66 442.677 28.136 442.677 26.168V12.632C442.677 10.664 443.169 9.14 444.153 8.06C445.161 6.98 446.613 6.44 448.509 6.44C450.405 6.44 451.845 6.98 452.829 8.06C453.837 9.14 454.341 10.664 454.341 12.632V15.296H450.597V12.38C450.597 10.82 449.937 10.04 448.617 10.04C447.297 10.04 446.637 10.82 446.637 12.38V26.456C446.637 27.992 447.297 28.76 448.617 28.76C449.937 28.76 450.597 27.992 450.597 26.456V22.604H454.341V26.168C454.341 28.136 453.837 29.66 452.829 30.74C451.845 31.82 450.405 32.36 448.509 32.36ZM457.07 6.8H461.03V17.06H465.278V6.8H469.238V32H465.278V20.66H461.03V32H457.07V6.8Z" fill="white"/>
<g clip-path="url(#clip0_739_194)">
<path d="M22.688 94.3015V98.0295H26.752V99.2295H22.688V103.07H27.232V104.27H21.232V93.1015H27.232V94.3015H22.688ZM40.1391 95.3415C40.8218 95.3415 41.4298 95.4855 41.9631 95.7735C42.4965 96.0509 42.9178 96.4722 43.2271 97.0375C43.5365 97.6029 43.6911 98.2909 43.6911 99.1015V104.27H42.2511V99.3095C42.2511 98.4349 42.0325 97.7682 41.5951 97.3095C41.1685 96.8402 40.5871 96.6055 39.8511 96.6055C39.0938 96.6055 38.4911 96.8509 38.0431 97.3415C37.5951 97.8215 37.3711 98.5202 37.3711 99.4375V104.27H35.9311V99.3095C35.9311 98.4349 35.7125 97.7682 35.2751 97.3095C34.8485 96.8402 34.2671 96.6055 33.5311 96.6055C32.7738 96.6055 32.1711 96.8509 31.7231 97.3415C31.2751 97.8215 31.0511 98.5202 31.0511 99.4375V104.27H29.5951V95.5015H31.0511V96.7655C31.3391 96.3069 31.7231 95.9549 32.2031 95.7095C32.6938 95.4642 33.2325 95.3415 33.8191 95.3415C34.5551 95.3415 35.2058 95.5069 35.7711 95.8375C36.3365 96.1682 36.7578 96.6535 37.0351 97.2935C37.2805 96.6749 37.6858 96.1949 38.2511 95.8535C38.8165 95.5122 39.4458 95.3415 40.1391 95.3415ZM45.6955 99.8535C45.6955 98.9575 45.8768 98.1735 46.2395 97.5015C46.6022 96.8189 47.0982 96.2909 47.7275 95.9175C48.3675 95.5442 49.0768 95.3575 49.8555 95.3575C50.6235 95.3575 51.2902 95.5229 51.8555 95.8535C52.4208 96.1842 52.8422 96.6002 53.1195 97.1015V95.5015H54.5915V104.27H53.1195V102.638C52.8315 103.15 52.3995 103.576 51.8235 103.918C51.2582 104.248 50.5968 104.414 49.8395 104.414C49.0608 104.414 48.3568 104.222 47.7275 103.838C47.0982 103.454 46.6022 102.915 46.2395 102.222C45.8768 101.528 45.6955 100.739 45.6955 99.8535ZM53.1195 99.8695C53.1195 99.2082 52.9862 98.6322 52.7195 98.1415C52.4528 97.6509 52.0902 97.2775 51.6315 97.0215C51.1835 96.7549 50.6875 96.6215 50.1435 96.6215C49.5995 96.6215 49.1035 96.7495 48.6555 97.0055C48.2075 97.2615 47.8502 97.6349 47.5835 98.1255C47.3168 98.6162 47.1835 99.1922 47.1835 99.8535C47.1835 100.526 47.3168 101.112 47.5835 101.614C47.8502 102.104 48.2075 102.483 48.6555 102.75C49.1035 103.006 49.5995 103.134 50.1435 103.134C50.6875 103.134 51.1835 103.006 51.6315 102.75C52.0902 102.483 52.4528 102.104 52.7195 101.614C52.9862 101.112 53.1195 100.531 53.1195 99.8695ZM57.964 94.0775C57.6867 94.0775 57.452 93.9815 57.26 93.7895C57.068 93.5975 56.972 93.3629 56.972 93.0855C56.972 92.8082 57.068 92.5735 57.26 92.3815C57.452 92.1895 57.6867 92.0935 57.964 92.0935C58.2307 92.0935 58.4547 92.1895 58.636 92.3815C58.828 92.5735 58.924 92.8082 58.924 93.0855C58.924 93.3629 58.828 93.5975 58.636 93.7895C58.4547 93.9815 58.2307 94.0775 57.964 94.0775ZM58.668 95.5015V104.27H57.212V95.5015H58.668ZM62.7655 92.4295V104.27H61.3095V92.4295H62.7655Z" fill="white"/>
<path d="M22.688 94.3015V93.3015H21.688V94.3015H22.688ZM22.688 98.0295H21.688V99.0295H22.688V98.0295ZM26.752 98.0295H27.752V97.0295H26.752V98.0295ZM26.752 99.2295V100.23H27.752V99.2295H26.752ZM22.688 99.2295V98.2295H21.688V99.2295H22.688ZM22.688 103.07H21.688V104.07H22.688V103.07ZM27.232 103.07H28.232V102.07H27.232V103.07ZM27.232 104.27V105.27H28.232V104.27H27.232ZM21.232 104.27H20.232V105.27H21.232V104.27ZM21.232 93.1015V92.1015H20.232V93.1015H21.232ZM27.232 93.1015H28.232V92.1015H27.232V93.1015ZM27.232 94.3015V95.3015H28.232V94.3015H27.232ZM21.688 94.3015V98.0295H23.688V94.3015H21.688ZM22.688 99.0295H26.752V97.0295H22.688V99.0295ZM25.752 98.0295V99.2295H27.752V98.0295H25.752ZM26.752 98.2295H22.688V100.23H26.752V98.2295ZM21.688 99.2295V103.07H23.688V99.2295H21.688ZM22.688 104.07H27.232V102.07H22.688V104.07ZM26.232 103.07V104.27H28.232V103.07H26.232ZM27.232 103.27H21.232V105.27H27.232V103.27ZM22.232 104.27V93.1015H20.232V104.27H22.232ZM21.232 94.1015H27.232V92.1015H21.232V94.1015ZM26.232 93.1015V94.3015H28.232V93.1015H26.232ZM27.232 93.3015H22.688V95.3015H27.232V93.3015ZM41.9631 95.7735L41.488 96.6534L41.4948 96.6571L41.5018 96.6607L41.9631 95.7735ZM43.2271 97.0375L42.3499 97.5175V97.5175L43.2271 97.0375ZM43.6911 104.27V105.27H44.6911V104.27H43.6911ZM42.2511 104.27H41.2511V105.27H42.2511V104.27ZM41.5951 97.3095L40.8552 97.9822L40.8632 97.991L40.8714 97.9996L41.5951 97.3095ZM38.0431 97.3415L38.7742 98.0239L38.7816 98.0158L38.0431 97.3415ZM37.3711 104.27V105.27H38.3711V104.27H37.3711ZM35.9311 104.27H34.9311V105.27H35.9311V104.27ZM35.2751 97.3095L34.5352 97.9822L34.5432 97.991L34.5514 97.9996L35.2751 97.3095ZM31.7231 97.3415L32.4542 98.0239L32.4616 98.0158L31.7231 97.3415ZM31.0511 104.27V105.27H32.0511V104.27H31.0511ZM29.5951 104.27H28.5951V105.27H29.5951V104.27ZM29.5951 95.5015V94.5015H28.5951V95.5015H29.5951ZM31.0511 95.5015H32.0511V94.5015H31.0511V95.5015ZM31.0511 96.7655H30.0511V100.239L31.898 97.2973L31.0511 96.7655ZM32.2031 95.7095L31.7559 94.8151L31.748 94.8191L32.2031 95.7095ZM35.7711 95.8375L35.2662 96.7007L35.7711 95.8375ZM37.0351 97.2935L36.1176 97.6911L37.0761 99.9031L37.9647 97.6622L37.0351 97.2935ZM38.2511 95.8535L38.768 96.7096V96.7096L38.2511 95.8535ZM40.1391 96.3415C40.6772 96.3415 41.1182 96.4538 41.488 96.6534L42.4383 94.8936C41.7413 94.5173 40.9664 94.3415 40.1391 94.3415V96.3415ZM41.5018 96.6607C41.8463 96.8399 42.1285 97.113 42.3499 97.5175L44.1044 96.5575C43.7071 95.8314 43.1466 95.2618 42.4245 94.8863L41.5018 96.6607ZM42.3499 97.5175C42.5605 97.9025 42.6911 98.4162 42.6911 99.1015H44.6911C44.6911 98.1656 44.5124 97.3033 44.1044 96.5575L42.3499 97.5175ZM42.6911 99.1015V104.27H44.6911V99.1015H42.6911ZM43.6911 103.27H42.2511V105.27H43.6911V103.27ZM43.2511 104.27V99.3095H41.2511V104.27H43.2511ZM43.2511 99.3095C43.2511 98.2768 42.9917 97.3251 42.3189 96.6195L40.8714 97.9996C41.0732 98.2113 41.2511 98.5929 41.2511 99.3095H43.2511ZM42.3351 96.6369C41.6879 95.925 40.8192 95.6055 39.8511 95.6055V97.6055C40.355 97.6055 40.649 97.7554 40.8552 97.9822L42.3351 96.6369ZM39.8511 95.6055C38.8562 95.6055 37.9695 95.9391 37.3046 96.6673L38.7816 98.0158C39.0128 97.7626 39.3314 97.6055 39.8511 97.6055V95.6055ZM37.3121 96.6592C36.6328 97.387 36.3711 98.368 36.3711 99.4375H38.3711C38.3711 98.6724 38.5575 98.2561 38.7742 98.0238L37.3121 96.6592ZM36.3711 99.4375V104.27H38.3711V99.4375H36.3711ZM37.3711 103.27H35.9311V105.27H37.3711V103.27ZM36.9311 104.27V99.3095H34.9311V104.27H36.9311ZM36.9311 99.3095C36.9311 98.2768 36.6717 97.3251 35.9989 96.6195L34.5514 97.9996C34.7532 98.2113 34.9311 98.5929 34.9311 99.3095H36.9311ZM36.0151 96.6369C35.3679 95.925 34.4992 95.6055 33.5311 95.6055V97.6055C34.035 97.6055 34.329 97.7554 34.5352 97.9822L36.0151 96.6369ZM33.5311 95.6055C32.5362 95.6055 31.6495 95.9391 30.9846 96.6673L32.4616 98.0158C32.6928 97.7626 33.0114 97.6055 33.5311 97.6055V95.6055ZM30.9921 96.6592C30.3128 97.387 30.0511 98.368 30.0511 99.4375H32.0511C32.0511 98.6724 32.2375 98.2561 32.4542 98.0238L30.9921 96.6592ZM30.0511 99.4375V104.27H32.0511V99.4375H30.0511ZM31.0511 103.27H29.5951V105.27H31.0511V103.27ZM30.5951 104.27V95.5015H28.5951V104.27H30.5951ZM29.5951 96.5015H31.0511V94.5015H29.5951V96.5015ZM30.0511 95.5015V96.7655H32.0511V95.5015H30.0511ZM31.898 97.2973C32.0906 96.9906 32.3396 96.7628 32.6582 96.6L31.748 94.8191C31.1067 95.1469 30.5876 95.6232 30.2042 96.2338L31.898 97.2973ZM32.6503 96.604C32.9926 96.4328 33.3767 96.3415 33.8191 96.3415V94.3415C33.0882 94.3415 32.395 94.4956 31.7559 94.8151L32.6503 96.604ZM33.8191 96.3415C34.4001 96.3415 34.8724 96.4703 35.2662 96.7007L36.276 94.9743C35.5392 94.5434 34.7101 94.3415 33.8191 94.3415V96.3415ZM35.2662 96.7007C35.6357 96.9168 35.919 97.2328 36.1176 97.6911L37.9527 96.8959C37.5966 96.0743 37.0372 95.4196 36.276 94.9743L35.2662 96.7007ZM37.9647 97.6622C38.1301 97.245 38.3914 96.937 38.768 96.7096L37.7343 94.9975C36.9802 95.4527 36.4308 96.1047 36.1055 96.9249L37.9647 97.6622ZM38.768 96.7096C39.1694 96.4672 39.6185 96.3415 40.1391 96.3415V94.3415C39.2731 94.3415 38.4635 94.5572 37.7343 94.9975L38.768 96.7096ZM46.2395 97.5015L47.1195 97.9765L47.1226 97.9707L46.2395 97.5015ZM47.7275 95.9175L47.2236 95.0537L47.2173 95.0575L47.7275 95.9175ZM51.8555 95.8535L51.3506 96.7167L51.8555 95.8535ZM53.1195 97.1015L52.2445 97.5856L54.1195 97.1015H53.1195ZM53.1195 95.5015V94.5015H52.1195V95.5015H53.1195ZM54.5915 95.5015H55.5915V94.5015H54.5915V95.5015ZM54.5915 104.27V105.27H55.5915V104.27H54.5915ZM53.1195 104.27H52.1195V105.27H53.1195V104.27ZM53.1195 102.638H54.1195V98.82L52.2479 102.147L53.1195 102.638ZM51.8235 103.918L52.3284 104.781L52.3333 104.778L51.8235 103.918ZM47.7275 103.838L47.2066 104.691L47.7275 103.838ZM46.2395 102.222L47.1256 101.758L46.2395 102.222ZM51.6315 97.0215L51.12 97.8808L51.132 97.8879L51.1441 97.8947L51.6315 97.0215ZM48.6555 97.0055L48.1594 96.1373V96.1373L48.6555 97.0055ZM47.5835 98.1255L48.4621 98.603L47.5835 98.1255ZM47.5835 101.614L46.7006 102.083L46.7049 102.091L47.5835 101.614ZM48.6555 102.75L48.144 103.609L48.1516 103.613L48.1594 103.618L48.6555 102.75ZM51.6315 102.75L52.1277 103.618L52.1341 103.614L51.6315 102.75ZM52.7195 101.614L53.5982 102.091L53.6024 102.083L52.7195 101.614ZM46.6955 99.8535C46.6955 99.0945 46.8482 98.4791 47.1195 97.9765L45.3595 97.0266C44.9054 97.8679 44.6955 98.8205 44.6955 99.8535H46.6955ZM47.1226 97.9707C47.4043 97.4405 47.7752 97.0519 48.2377 96.7776L47.2173 95.0575C46.4211 95.5298 45.8001 96.1972 45.3564 97.0324L47.1226 97.9707ZM48.2314 96.7813C48.7105 96.5018 49.2445 96.3575 49.8555 96.3575V94.3575C48.9092 94.3575 48.0245 94.5866 47.2236 95.0538L48.2314 96.7813ZM49.8555 96.3575C50.477 96.3575 50.9631 96.4901 51.3506 96.7167L52.3604 94.9903C51.6172 94.5557 50.77 94.3575 49.8555 94.3575V96.3575ZM51.3506 96.7167C51.7833 96.9698 52.0661 97.2631 52.2445 97.5856L53.9945 96.6175C53.6183 95.9373 53.0583 95.3986 52.3604 94.9903L51.3506 96.7167ZM54.1195 97.1015V95.5015H52.1195V97.1015H54.1195ZM53.1195 96.5015H54.5915V94.5015H53.1195V96.5015ZM53.5915 95.5015V104.27H55.5915V95.5015H53.5915ZM54.5915 103.27H53.1195V105.27H54.5915V103.27ZM54.1195 104.27V102.638H52.1195V104.27H54.1195ZM52.2479 102.147C52.0574 102.486 51.7602 102.793 51.3137 103.057L52.3333 104.778C53.0388 104.36 53.6056 103.813 53.9911 103.128L52.2479 102.147ZM51.3186 103.054C50.929 103.282 50.4475 103.414 49.8395 103.414V105.414C50.7462 105.414 51.5873 105.214 52.3284 104.781L51.3186 103.054ZM49.8395 103.414C49.2338 103.414 48.7119 103.267 48.2484 102.984L47.2066 104.691C48.0018 105.176 48.8878 105.414 49.8395 105.414V103.414ZM48.2484 102.984C47.7835 102.7 47.4095 102.301 47.1256 101.758L45.3534 102.685C45.7948 103.529 46.4128 104.207 47.2066 104.691L48.2484 102.984ZM47.1256 101.758C46.8471 101.226 46.6955 100.599 46.6955 99.8535H44.6955C44.6955 100.879 44.9066 101.831 45.3534 102.685L47.1256 101.758ZM54.1195 99.8695C54.1195 99.0721 53.9579 98.3261 53.5981 97.664L51.8409 98.619C52.0144 98.9383 52.1195 99.3443 52.1195 99.8695H54.1195ZM53.5981 97.664C53.2471 97.0181 52.7533 96.5025 52.1189 96.1483L51.1441 97.8947C51.427 98.0526 51.6586 98.2837 51.8409 98.619L53.5981 97.664ZM52.143 96.1622C51.5334 95.7994 50.8594 95.6215 50.1435 95.6215V97.6215C50.5156 97.6215 50.8336 97.7103 51.12 97.8808L52.143 96.1622ZM50.1435 95.6215C49.4353 95.6215 48.7668 95.7902 48.1594 96.1373L49.1516 97.8738C49.4402 97.7089 49.7637 97.6215 50.1435 97.6215V95.6215ZM48.1594 96.1373C47.5368 96.493 47.0527 97.0081 46.7049 97.648L48.4621 98.603C48.6477 98.2617 48.8782 98.03 49.1516 97.8738L48.1594 96.1373ZM46.7049 97.648C46.3451 98.3101 46.1835 99.0561 46.1835 99.8535H48.1835C48.1835 99.3283 48.2886 98.9223 48.4621 98.603L46.7049 97.648ZM46.1835 99.8535C46.1835 100.659 46.3441 101.413 46.7006 102.083L48.4664 101.144C48.2896 100.812 48.1835 100.392 48.1835 99.8535H46.1835ZM46.7049 102.091C47.051 102.728 47.5305 103.244 48.144 103.609L49.167 101.89C48.8845 101.722 48.6493 101.48 48.4621 101.136L46.7049 102.091ZM48.1594 103.618C48.7668 103.965 49.4353 104.134 50.1435 104.134V102.134C49.7637 102.134 49.4402 102.046 49.1516 101.881L48.1594 103.618ZM50.1435 104.134C50.8517 104.134 51.5202 103.965 52.1276 103.618L51.1354 101.881C50.8468 102.046 50.5233 102.134 50.1435 102.134V104.134ZM52.1341 103.614C52.7597 103.25 53.2488 102.734 53.5981 102.091L51.8409 101.136C51.6569 101.475 51.4206 101.715 51.1289 101.885L52.1341 103.614ZM53.6024 102.083C53.9577 101.415 54.1195 100.668 54.1195 99.8695H52.1195C52.1195 100.394 52.0146 100.809 51.8366 101.144L53.6024 102.083ZM57.26 93.7895L57.9671 93.0824L57.26 93.7895ZM57.26 92.3815L57.9671 93.0886L57.26 92.3815ZM58.636 92.3815L57.909 93.0682L57.9188 93.0785L57.9289 93.0886L58.636 92.3815ZM58.636 93.7895L57.9289 93.0824L57.9188 93.0925L57.909 93.1029L58.636 93.7895ZM58.668 95.5015H59.668V94.5015H58.668V95.5015ZM58.668 104.27V105.27H59.668V104.27H58.668ZM57.212 104.27H56.212V105.27H57.212V104.27ZM57.212 95.5015V94.5015H56.212V95.5015H57.212ZM57.964 93.0775C57.9525 93.0775 57.9477 93.0766 57.9483 93.0767C57.949 93.0768 57.9529 93.0777 57.9586 93.08C57.9644 93.0823 57.9689 93.0849 57.9715 93.0867C57.9739 93.0884 57.9724 93.0877 57.9671 93.0824L56.5529 94.4966C56.9369 94.8806 57.4278 95.0775 57.964 95.0775V93.0775ZM57.9671 93.0824C57.9618 93.0772 57.9612 93.0756 57.9628 93.0781C57.9646 93.0807 57.9672 93.0852 57.9695 93.0909C57.9719 93.0966 57.9727 93.1005 57.9729 93.1012C57.973 93.1018 57.972 93.097 57.972 93.0855H55.972C55.972 93.6217 56.1689 94.1127 56.5529 94.4966L57.9671 93.0824ZM57.972 93.0855C57.972 93.0741 57.973 93.0693 57.9729 93.0698C57.9727 93.0706 57.9719 93.0745 57.9695 93.0802C57.9672 93.0859 57.9646 93.0904 57.9628 93.093C57.9612 93.0955 57.9618 93.0939 57.9671 93.0886L56.5529 91.6744C56.1689 92.0584 55.972 92.5493 55.972 93.0855H57.972ZM57.9671 93.0886C57.9724 93.0834 57.9739 93.0827 57.9715 93.0844C57.9689 93.0861 57.9644 93.0887 57.9586 93.0911C57.9529 93.0934 57.949 93.0943 57.9483 93.0944C57.9477 93.0945 57.9525 93.0935 57.964 93.0935V91.0935C57.4278 91.0935 56.9369 91.2904 56.5529 91.6744L57.9671 93.0886ZM57.964 93.0935C57.9705 93.0935 57.97 93.0941 57.964 93.0929C57.9578 93.0917 57.9487 93.0892 57.9381 93.0847C57.9275 93.0801 57.9188 93.075 57.9128 93.0707C57.9069 93.0665 57.9058 93.0648 57.909 93.0682L59.363 91.6949C58.9907 91.3007 58.5028 91.0935 57.964 91.0935V93.0935ZM57.9289 93.0886C57.9342 93.0939 57.9348 93.0955 57.9332 93.093C57.9314 93.0904 57.9288 93.0859 57.9265 93.0802C57.9241 93.0745 57.9233 93.0706 57.9231 93.0698C57.923 93.0693 57.924 93.0741 57.924 93.0855H59.924C59.924 92.5493 59.7271 92.0584 59.3431 91.6744L57.9289 93.0886ZM57.924 93.0855C57.924 93.097 57.923 93.1018 57.9231 93.1012C57.9233 93.1005 57.9241 93.0966 57.9265 93.0909C57.9288 93.0852 57.9314 93.0807 57.9332 93.0781C57.9348 93.0756 57.9342 93.0772 57.9289 93.0824L59.3431 94.4966C59.7271 94.1127 59.924 93.6217 59.924 93.0855H57.924ZM57.909 93.1029C57.9058 93.1063 57.9069 93.1045 57.9128 93.1004C57.9188 93.096 57.9275 93.0909 57.9381 93.0864C57.9487 93.0819 57.9578 93.0793 57.964 93.0781C57.97 93.077 57.9705 93.0775 57.964 93.0775V95.0775C58.5028 95.0775 58.9907 94.8704 59.363 94.4762L57.909 93.1029ZM57.668 95.5015V104.27H59.668V95.5015H57.668ZM58.668 103.27H57.212V105.27H58.668V103.27ZM58.212 104.27V95.5015H56.212V104.27H58.212ZM57.212 96.5015H58.668V94.5015H57.212V96.5015ZM62.7655 92.4295H63.7655V91.4295H62.7655V92.4295ZM62.7655 104.27V105.27H63.7655V104.27H62.7655ZM61.3095 104.27H60.3095V105.27H61.3095V104.27ZM61.3095 92.4295V91.4295H60.3095V92.4295H61.3095ZM61.7655 92.4295V104.27H63.7655V92.4295H61.7655ZM62.7655 103.27H61.3095V105.27H62.7655V103.27ZM62.3095 104.27V92.4295H60.3095V104.27H62.3095ZM61.3095 93.4295H62.7655V91.4295H61.3095V93.4295Z" fill="#2C2C2C"/>
<rect x="0.5" y="51.7891" width="621" height="92.9617" rx="11.5" stroke="white"/>
</g>
<path d="M441 74C441 67.3726 446.373 62 453 62H605C611.627 62 617 67.3726 617 74V122C617 128.627 611.627 134 605 134H453C446.373 134 441 128.627 441 122V74Z" fill="#00FFFF"/>
<path d="M492.229 104.112C491.407 104.112 490.671 103.979 490.021 103.712C489.37 103.445 488.847 103.051 488.453 102.528C488.069 102.005 487.866 101.376 487.845 100.64H490.757C490.799 101.056 490.943 101.376 491.189 101.6C491.434 101.813 491.754 101.92 492.149 101.92C492.554 101.92 492.874 101.829 493.109 101.648C493.343 101.456 493.461 101.195 493.461 100.864C493.461 100.587 493.365 100.357 493.173 100.176C492.991 99.9947 492.762 99.8453 492.485 99.728C492.218 99.6107 491.834 99.4773 491.333 99.328C490.607 99.104 490.015 98.88 489.557 98.656C489.098 98.432 488.703 98.1013 488.373 97.664C488.042 97.2267 487.877 96.656 487.877 95.952C487.877 94.9067 488.255 94.0907 489.013 93.504C489.77 92.9067 490.757 92.608 491.973 92.608C493.21 92.608 494.207 92.9067 494.965 93.504C495.722 94.0907 496.127 94.912 496.181 95.968H493.221C493.199 95.6053 493.066 95.3227 492.821 95.12C492.575 94.9067 492.261 94.8 491.877 94.8C491.546 94.8 491.279 94.8907 491.077 95.072C490.874 95.2427 490.773 95.4933 490.773 95.824C490.773 96.1867 490.943 96.4693 491.285 96.672C491.626 96.8747 492.159 97.0933 492.885 97.328C493.61 97.5733 494.197 97.808 494.645 98.032C495.103 98.256 495.498 98.5813 495.829 99.008C496.159 99.4347 496.325 99.984 496.325 100.656C496.325 101.296 496.159 101.877 495.829 102.4C495.509 102.923 495.039 103.339 494.421 103.648C493.802 103.957 493.071 104.112 492.229 104.112ZM506.984 95.072V104H504.248V102.784C503.971 103.179 503.592 103.499 503.112 103.744C502.643 103.979 502.12 104.096 501.544 104.096C500.862 104.096 500.259 103.947 499.736 103.648C499.214 103.339 498.808 102.896 498.52 102.32C498.232 101.744 498.088 101.067 498.088 100.288V95.072H500.808V99.92C500.808 100.517 500.963 100.981 501.272 101.312C501.582 101.643 501.998 101.808 502.52 101.808C503.054 101.808 503.475 101.643 503.784 101.312C504.094 100.981 504.248 100.517 504.248 99.92V95.072H506.984ZM511.846 96.336C512.102 95.92 512.47 95.584 512.95 95.328C513.43 95.072 513.979 94.944 514.598 94.944C515.334 94.944 516 95.1307 516.598 95.504C517.195 95.8773 517.664 96.4107 518.006 97.104C518.358 97.7973 518.534 98.6027 518.534 99.52C518.534 100.437 518.358 101.248 518.006 101.952C517.664 102.645 517.195 103.184 516.598 103.568C516 103.941 515.334 104.128 514.598 104.128C513.968 104.128 513.419 104.005 512.95 103.76C512.48 103.504 512.112 103.168 511.846 102.752V104H509.11V92.16H511.846V96.336ZM515.75 99.52C515.75 98.8373 515.558 98.304 515.174 97.92C514.8 97.5253 514.336 97.328 513.782 97.328C513.238 97.328 512.774 97.5253 512.39 97.92C512.016 98.3147 511.83 98.8533 511.83 99.536C511.83 100.219 512.016 100.757 512.39 101.152C512.774 101.547 513.238 101.744 513.782 101.744C514.326 101.744 514.79 101.547 515.174 101.152C515.558 100.747 515.75 100.203 515.75 99.52ZM523.761 104.128C522.982 104.128 522.289 103.995 521.681 103.728C521.073 103.461 520.593 103.099 520.241 102.64C519.889 102.171 519.692 101.648 519.649 101.072H522.353C522.385 101.381 522.529 101.632 522.785 101.824C523.041 102.016 523.356 102.112 523.729 102.112C524.07 102.112 524.332 102.048 524.513 101.92C524.705 101.781 524.801 101.605 524.801 101.392C524.801 101.136 524.668 100.949 524.401 100.832C524.134 100.704 523.702 100.565 523.105 100.416C522.465 100.267 521.932 100.112 521.505 99.952C521.078 99.7813 520.71 99.52 520.401 99.168C520.092 98.8053 519.937 98.32 519.937 97.712C519.937 97.2 520.076 96.736 520.353 96.32C520.641 95.8933 521.057 95.5573 521.601 95.312C522.156 95.0667 522.812 94.944 523.569 94.944C524.689 94.944 525.569 95.2213 526.209 95.776C526.86 96.3307 527.233 97.0667 527.329 97.984H524.801C524.758 97.6747 524.62 97.4293 524.385 97.248C524.161 97.0667 523.862 96.976 523.489 96.976C523.169 96.976 522.924 97.04 522.753 97.168C522.582 97.2853 522.497 97.4507 522.497 97.664C522.497 97.92 522.63 98.112 522.897 98.24C523.174 98.368 523.601 98.496 524.177 98.624C524.838 98.7947 525.377 98.9653 525.793 99.136C526.209 99.296 526.572 99.5627 526.881 99.936C527.201 100.299 527.366 100.789 527.377 101.408C527.377 101.931 527.228 102.4 526.929 102.816C526.641 103.221 526.22 103.541 525.665 103.776C525.121 104.011 524.486 104.128 523.761 104.128ZM528.667 99.536C528.667 98.608 528.853 97.7973 529.227 97.104C529.611 96.4107 530.139 95.8773 530.811 95.504C531.493 95.1307 532.272 94.944 533.147 94.944C534.267 94.944 535.2 95.2373 535.947 95.824C536.704 96.4107 537.2 97.2373 537.435 98.304H534.523C534.277 97.6213 533.803 97.28 533.099 97.28C532.597 97.28 532.197 97.4773 531.899 97.872C531.6 98.256 531.451 98.8107 531.451 99.536C531.451 100.261 531.6 100.821 531.899 101.216C532.197 101.6 532.597 101.792 533.099 101.792C533.803 101.792 534.277 101.451 534.523 100.768H537.435C537.2 101.813 536.704 102.635 535.947 103.232C535.189 103.829 534.256 104.128 533.147 104.128C532.272 104.128 531.493 103.941 530.811 103.568C530.139 103.195 529.611 102.661 529.227 101.968C528.853 101.275 528.667 100.464 528.667 99.536ZM541.794 96.56C542.114 96.0693 542.514 95.6853 542.994 95.408C543.474 95.12 544.008 94.976 544.594 94.976V97.872H543.842C543.16 97.872 542.648 98.0213 542.306 98.32C541.965 98.608 541.794 99.12 541.794 99.856V104H539.058V95.072H541.794V96.56ZM547.438 94.144C546.958 94.144 546.563 94.0053 546.254 93.728C545.955 93.44 545.806 93.088 545.806 92.672C545.806 92.2453 545.955 91.8933 546.254 91.616C546.563 91.328 546.958 91.184 547.438 91.184C547.907 91.184 548.291 91.328 548.59 91.616C548.899 91.8933 549.054 92.2453 549.054 92.672C549.054 93.088 548.899 93.44 548.59 93.728C548.291 94.0053 547.907 94.144 547.438 94.144ZM548.798 95.072V104H546.062V95.072H548.798ZM553.677 96.336C553.933 95.92 554.301 95.584 554.781 95.328C555.261 95.072 555.81 94.944 556.429 94.944C557.165 94.944 557.831 95.1307 558.429 95.504C559.026 95.8773 559.495 96.4107 559.837 97.104C560.189 97.7973 560.365 98.6027 560.365 99.52C560.365 100.437 560.189 101.248 559.837 101.952C559.495 102.645 559.026 103.184 558.429 103.568C557.831 103.941 557.165 104.128 556.429 104.128C555.799 104.128 555.25 104.005 554.781 103.76C554.311 103.504 553.943 103.168 553.677 102.752V104H550.941V92.16H553.677V96.336ZM557.581 99.52C557.581 98.8373 557.389 98.304 557.005 97.92C556.631 97.5253 556.167 97.328 555.613 97.328C555.069 97.328 554.605 97.5253 554.221 97.92C553.847 98.3147 553.661 98.8533 553.661 99.536C553.661 100.219 553.847 100.757 554.221 101.152C554.605 101.547 555.069 101.744 555.613 101.744C556.157 101.744 556.621 101.547 557.005 101.152C557.389 100.747 557.581 100.203 557.581 99.52ZM570.376 99.392C570.376 99.648 570.36 99.9147 570.328 100.192H564.136C564.179 100.747 564.355 101.173 564.664 101.472C564.984 101.76 565.373 101.904 565.832 101.904C566.515 101.904 566.989 101.616 567.256 101.04H570.168C570.019 101.627 569.747 102.155 569.352 102.624C568.968 103.093 568.483 103.461 567.896 103.728C567.309 103.995 566.653 104.128 565.928 104.128C565.053 104.128 564.275 103.941 563.592 103.568C562.909 103.195 562.376 102.661 561.992 101.968C561.608 101.275 561.416 100.464 561.416 99.536C561.416 98.608 561.603 97.7973 561.976 97.104C562.36 96.4107 562.893 95.8773 563.576 95.504C564.259 95.1307 565.043 94.944 565.928 94.944C566.792 94.944 567.56 95.1253 568.232 95.488C568.904 95.8507 569.427 96.368 569.8 97.04C570.184 97.712 570.376 98.496 570.376 99.392ZM567.576 98.672C567.576 98.2027 567.416 97.8293 567.096 97.552C566.776 97.2747 566.376 97.136 565.896 97.136C565.437 97.136 565.048 97.2693 564.728 97.536C564.419 97.8027 564.227 98.1813 564.152 98.672H567.576Z" fill="#2C2C2C"/>
<g clip-path="url(#clip1_739_194)">
<path d="M193 423.5H195.5L196.5 419.5H193V417.5C193 416.47 193 415.5 195 415.5H196.5V412.14C196.174 412.097 194.943 412 193.643 412C190.928 412 189 413.657 189 416.7V419.5H186V423.5H189V432H193V423.5Z" fill="white"/>
</g>
<g clip-path="url(#clip2_739_194)">
<path d="M249.162 415.656C248.399 415.994 247.589 416.215 246.76 416.314C247.634 415.791 248.288 414.969 248.6 414C247.78 414.488 246.881 414.83 245.944 415.015C245.315 414.342 244.48 413.895 243.571 413.745C242.662 413.594 241.728 413.748 240.915 414.183C240.103 414.618 239.456 415.31 239.077 416.15C238.698 416.99 238.607 417.932 238.818 418.829C237.155 418.746 235.528 418.313 234.043 417.561C232.558 416.808 231.248 415.751 230.198 414.459C229.826 415.097 229.631 415.823 229.632 416.562C229.632 418.012 230.37 419.293 231.492 420.043C230.828 420.022 230.179 419.843 229.598 419.52V419.572C229.598 420.538 229.932 421.474 230.544 422.221C231.155 422.968 232.006 423.481 232.953 423.673C232.337 423.84 231.69 423.865 231.063 423.745C231.33 424.576 231.85 425.303 232.551 425.824C233.251 426.345 234.097 426.634 234.97 426.65C234.102 427.331 233.109 427.835 232.047 428.132C230.985 428.429 229.874 428.514 228.779 428.382C230.691 429.611 232.916 430.264 235.189 430.262C242.882 430.262 247.089 423.889 247.089 418.362C247.089 418.182 247.084 418 247.076 417.822C247.895 417.23 248.602 416.497 249.163 415.657L249.162 415.656Z" fill="white"/>
</g>
<g clip-path="url(#clip3_739_194)">
<path d="M286.871 431.764C285.681 431.764 284.887 431.203 284.178 430.708C283.675 430.351 283.202 430.012 282.645 429.918C282.38 429.872 282.111 429.85 281.842 429.852C281.37 429.852 280.995 429.923 280.728 429.977C280.558 430.007 280.416 430.035 280.304 430.035C280.188 430.035 280.041 430.003 279.984 429.807C279.934 429.647 279.903 429.495 279.872 429.348C279.792 428.978 279.725 428.751 279.586 428.728C278.097 428.501 277.206 428.158 277.032 427.752C277.018 427.708 277.001 427.662 277.001 427.627C276.991 427.502 277.081 427.4 277.206 427.377C278.387 427.181 279.448 426.553 280.344 425.519C281.04 424.716 281.379 423.94 281.41 423.856C281.41 423.846 281.419 423.846 281.419 423.846C281.589 423.495 281.624 423.196 281.521 422.951C281.33 422.491 280.696 422.295 280.264 422.161C280.153 422.131 280.059 422.095 279.979 422.068C279.609 421.921 278.993 421.608 279.074 421.176C279.132 420.864 279.546 420.641 279.885 420.641C279.979 420.641 280.059 420.655 280.125 420.691C280.505 420.864 280.848 420.953 281.142 420.953C281.508 420.953 281.682 420.815 281.726 420.771C281.717 420.573 281.705 420.376 281.691 420.178C281.601 418.813 281.499 417.119 281.931 416.148C283.229 413.241 285.984 413.008 286.8 413.008L287.156 413H287.206C288.021 413 290.776 413.227 292.074 416.139C292.511 417.11 292.404 418.809 292.314 420.169L292.306 420.236C292.296 420.418 292.283 420.592 292.274 420.771C292.319 420.806 292.479 420.94 292.809 420.944C293.095 420.936 293.407 420.842 293.763 420.681C293.862 420.638 293.968 420.616 294.075 420.615C294.2 420.615 294.325 420.645 294.432 420.681H294.441C294.74 420.793 294.936 421.002 294.936 421.221C294.945 421.426 294.784 421.738 294.022 422.046C293.942 422.076 293.848 422.113 293.737 422.139C293.313 422.269 292.68 422.474 292.479 422.929C292.368 423.169 292.413 423.477 292.582 423.824C292.582 423.834 292.591 423.834 292.591 423.834C292.64 423.958 293.928 426.883 296.795 427.36C296.854 427.37 296.907 427.401 296.944 427.447C296.982 427.493 297.002 427.551 297 427.61C297 427.654 296.991 427.699 296.969 427.739C296.795 428.149 295.912 428.483 294.414 428.715C294.276 428.737 294.209 428.965 294.129 429.335C294.097 429.489 294.06 429.642 294.017 429.794C293.973 429.941 293.879 430.021 293.719 430.021H293.696C293.594 430.021 293.456 430.008 293.273 429.972C292.906 429.894 292.533 429.855 292.158 429.856C291.895 429.856 291.623 429.879 291.356 429.923C290.803 430.013 290.326 430.356 289.822 430.713C289.105 431.203 288.307 431.764 287.125 431.764H286.871Z" fill="white"/>
</g>
<g clip-path="url(#clip4_739_194)">
<path d="M335 412C337.717 412 338.056 412.01 339.122 412.06C340.187 412.11 340.912 412.277 341.55 412.525C342.21 412.779 342.766 413.123 343.322 413.678C343.83 414.178 344.224 414.783 344.475 415.45C344.722 416.087 344.89 416.813 344.94 417.878C344.987 418.944 345 419.283 345 422C345 424.717 344.99 425.056 344.94 426.122C344.89 427.187 344.722 427.912 344.475 428.55C344.225 429.218 343.831 429.823 343.322 430.322C342.822 430.83 342.217 431.224 341.55 431.475C340.913 431.722 340.187 431.89 339.122 431.94C338.056 431.987 337.717 432 335 432C332.283 432 331.944 431.99 330.878 431.94C329.813 431.89 329.088 431.722 328.45 431.475C327.782 431.224 327.178 430.831 326.678 430.322C326.169 429.822 325.776 429.217 325.525 428.55C325.277 427.913 325.11 427.187 325.06 426.122C325.013 425.056 325 424.717 325 422C325 419.283 325.01 418.944 325.06 417.878C325.11 416.812 325.277 416.088 325.525 415.45C325.775 414.782 326.169 414.177 326.678 413.678C327.178 413.169 327.782 412.776 328.45 412.525C329.088 412.277 329.812 412.11 330.878 412.06C331.944 412.013 332.283 412 335 412ZM335 417C333.674 417 332.402 417.527 331.464 418.464C330.527 419.402 330 420.674 330 422C330 423.326 330.527 424.598 331.464 425.536C332.402 426.473 333.674 427 335 427C336.326 427 337.598 426.473 338.536 425.536C339.473 424.598 340 423.326 340 422C340 420.674 339.473 419.402 338.536 418.464C337.598 417.527 336.326 417 335 417ZM341.5 416.75C341.5 416.418 341.368 416.101 341.134 415.866C340.899 415.632 340.582 415.5 340.25 415.5C339.918 415.5 339.601 415.632 339.366 415.866C339.132 416.101 339 416.418 339 416.75C339 417.082 339.132 417.399 339.366 417.634C339.601 417.868 339.918 418 340.25 418C340.582 418 340.899 417.868 341.134 417.634C341.368 417.399 341.5 417.082 341.5 416.75ZM335 419C335.796 419 336.559 419.316 337.121 419.879C337.684 420.441 338 421.204 338 422C338 422.796 337.684 423.559 337.121 424.121C336.559 424.684 335.796 425 335 425C334.204 425 333.441 424.684 332.879 424.121C332.316 423.559 332 422.796 332 422C332 421.204 332.316 420.441 332.879 419.879C333.441 419.316 334.204 419 335 419Z" fill="white"/>
</g>
<g clip-path="url(#clip5_739_194)">
<path d="M389.335 428.339H386.67V424.162C386.67 423.166 386.65 421.884 385.28 421.884C383.891 421.884 383.679 422.968 383.679 424.089V428.339H381.013V419.75H383.573V420.92H383.608C383.966 420.246 384.836 419.533 386.136 419.533C388.836 419.533 389.336 421.311 389.336 423.624V428.339H389.335ZM378.003 418.575C377.8 418.575 377.598 418.535 377.41 418.458C377.222 418.38 377.051 418.266 376.907 418.122C376.764 417.978 376.65 417.807 376.572 417.619C376.494 417.431 376.455 417.229 376.455 417.026C376.455 416.72 376.546 416.421 376.716 416.166C376.887 415.912 377.129 415.713 377.412 415.596C377.694 415.479 378.006 415.449 378.306 415.509C378.606 415.569 378.882 415.716 379.098 415.933C379.315 416.15 379.462 416.426 379.521 416.726C379.581 417.026 379.55 417.338 379.433 417.62C379.315 417.903 379.117 418.145 378.862 418.315C378.608 418.485 378.308 418.575 378.002 418.575H378.003ZM379.339 428.339H376.666V419.75H379.34V428.339H379.339ZM390.67 413H375.329C374.593 413 374 413.58 374 414.297V429.703C374 430.42 374.594 431 375.328 431H390.666C391.4 431 392 430.42 392 429.703V414.297C392 413.58 391.4 413 390.666 413H390.669H390.67Z" fill="white"/>
</g>
<g clip-path="url(#clip6_739_194)">
<path d="M431 412C425.475 412 421 416.475 421 422C420.999 424.099 421.659 426.146 422.886 427.849C424.114 429.552 425.846 430.825 427.838 431.488C428.338 431.575 428.525 431.275 428.525 431.012C428.525 430.775 428.512 429.988 428.512 429.15C426 429.613 425.35 428.538 425.15 427.975C425.037 427.687 424.55 426.8 424.125 426.562C423.775 426.375 423.275 425.912 424.112 425.9C424.9 425.887 425.462 426.625 425.65 426.925C426.55 428.437 427.988 428.012 428.562 427.75C428.65 427.1 428.912 426.663 429.2 426.413C426.975 426.163 424.65 425.3 424.65 421.475C424.65 420.387 425.037 419.488 425.675 418.787C425.575 418.537 425.225 417.512 425.775 416.137C425.775 416.137 426.612 415.875 428.525 417.163C429.339 416.937 430.18 416.823 431.025 416.825C431.875 416.825 432.725 416.937 433.525 417.162C435.437 415.862 436.275 416.138 436.275 416.138C436.825 417.513 436.475 418.538 436.375 418.788C437.012 419.488 437.4 420.375 437.4 421.475C437.4 425.313 435.063 426.163 432.838 426.413C433.2 426.725 433.513 427.325 433.513 428.263C433.513 429.6 433.5 430.675 433.5 431.013C433.5 431.275 433.688 431.587 434.188 431.487C436.173 430.817 437.898 429.541 439.12 427.839C440.342 426.137 440.999 424.095 441 422C441 416.475 436.525 412 431 412Z" fill="white"/>
</g>
<path d="M149.525 480.736C150.602 480.736 151.562 480.981 152.405 481.472C153.248 481.952 153.898 482.624 154.357 483.488C154.826 484.341 155.061 485.317 155.061 486.416C155.061 487.515 154.826 488.496 154.357 489.36C153.898 490.213 153.248 490.885 152.405 491.376C151.562 491.856 150.602 492.096 149.525 492.096C148.437 492.096 147.472 491.856 146.629 491.376C145.786 490.885 145.13 490.213 144.661 489.36C144.192 488.496 143.957 487.515 143.957 486.416C143.957 485.317 144.192 484.341 144.661 483.488C145.13 482.624 145.786 481.952 146.629 481.472C147.472 480.981 148.437 480.736 149.525 480.736ZM149.525 481.376C148.533 481.376 147.669 481.589 146.933 482.016C146.197 482.432 145.632 483.019 145.237 483.776C144.842 484.533 144.645 485.413 144.645 486.416C144.645 487.408 144.842 488.288 145.237 489.056C145.632 489.813 146.197 490.405 146.933 490.832C147.669 491.259 148.533 491.472 149.525 491.472C150.506 491.472 151.36 491.259 152.085 490.832C152.821 490.405 153.386 489.813 153.781 489.056C154.176 488.288 154.373 487.408 154.373 486.416C154.373 485.413 154.176 484.533 153.781 483.776C153.386 483.019 152.821 482.432 152.085 482.016C151.36 481.589 150.506 481.376 149.525 481.376ZM149.493 482.704C148.853 482.704 148.266 482.853 147.733 483.152C147.21 483.451 146.794 483.883 146.485 484.448C146.176 485.003 146.021 485.653 146.021 486.4C146.021 487.147 146.176 487.803 146.485 488.368C146.794 488.923 147.21 489.355 147.733 489.664C148.266 489.963 148.853 490.112 149.493 490.112C150.293 490.112 150.986 489.899 151.573 489.472C152.16 489.035 152.56 488.453 152.773 487.728H151.429C151.109 488.613 150.464 489.056 149.493 489.056C148.853 489.056 148.33 488.827 147.925 488.368C147.52 487.909 147.317 487.259 147.317 486.416C147.317 485.563 147.52 484.907 147.925 484.448C148.33 483.989 148.853 483.76 149.493 483.76C149.962 483.76 150.368 483.877 150.709 484.112C151.05 484.336 151.29 484.661 151.429 485.088H152.773C152.57 484.331 152.176 483.744 151.589 483.328C151.002 482.912 150.304 482.704 149.493 482.704ZM161.119 486.416C161.119 485.328 161.364 484.352 161.855 483.488C162.345 482.613 163.012 481.931 163.855 481.44C164.708 480.949 165.652 480.704 166.687 480.704C167.903 480.704 168.964 480.997 169.871 481.584C170.777 482.171 171.439 483.003 171.855 484.08H170.111C169.801 483.408 169.353 482.891 168.767 482.528C168.191 482.165 167.497 481.984 166.687 481.984C165.908 481.984 165.209 482.165 164.591 482.528C163.972 482.891 163.487 483.408 163.135 484.08C162.783 484.741 162.607 485.52 162.607 486.416C162.607 487.301 162.783 488.08 163.135 488.752C163.487 489.413 163.972 489.925 164.591 490.288C165.209 490.651 165.908 490.832 166.687 490.832C167.497 490.832 168.191 490.656 168.767 490.304C169.353 489.941 169.801 489.424 170.111 488.752H171.855C171.439 489.819 170.777 490.645 169.871 491.232C168.964 491.808 167.903 492.096 166.687 492.096C165.652 492.096 164.708 491.856 163.855 491.376C163.012 490.885 162.345 490.208 161.855 489.344C161.364 488.48 161.119 487.504 161.119 486.416ZM178.006 492.144C177.185 492.144 176.438 491.957 175.766 491.584C175.105 491.211 174.582 490.683 174.198 490C173.825 489.307 173.638 488.507 173.638 487.6C173.638 486.704 173.83 485.915 174.214 485.232C174.609 484.539 175.142 484.011 175.814 483.648C176.486 483.275 177.238 483.088 178.07 483.088C178.902 483.088 179.654 483.275 180.326 483.648C180.998 484.011 181.526 484.533 181.91 485.216C182.305 485.899 182.502 486.693 182.502 487.6C182.502 488.507 182.299 489.307 181.894 490C181.499 490.683 180.961 491.211 180.278 491.584C179.595 491.957 178.838 492.144 178.006 492.144ZM178.006 490.864C178.529 490.864 179.019 490.741 179.478 490.496C179.937 490.251 180.305 489.883 180.582 489.392C180.87 488.901 181.014 488.304 181.014 487.6C181.014 486.896 180.875 486.299 180.598 485.808C180.321 485.317 179.958 484.955 179.51 484.72C179.062 484.475 178.577 484.352 178.054 484.352C177.521 484.352 177.03 484.475 176.582 484.72C176.145 484.955 175.793 485.317 175.526 485.808C175.259 486.299 175.126 486.896 175.126 487.6C175.126 488.315 175.254 488.917 175.51 489.408C175.777 489.899 176.129 490.267 176.566 490.512C177.003 490.747 177.483 490.864 178.006 490.864ZM186.032 484.848C186.32 484.347 186.747 483.931 187.312 483.6C187.888 483.259 188.555 483.088 189.312 483.088C190.091 483.088 190.795 483.275 191.424 483.648C192.064 484.021 192.566 484.549 192.928 485.232C193.291 485.904 193.472 486.688 193.472 487.584C193.472 488.469 193.291 489.259 192.928 489.952C192.566 490.645 192.064 491.184 191.424 491.568C190.795 491.952 190.091 492.144 189.312 492.144C188.566 492.144 187.904 491.979 187.328 491.648C186.763 491.307 186.331 490.885 186.032 490.384V496.16H184.576V483.232H186.032V484.848ZM191.984 487.584C191.984 486.923 191.851 486.347 191.584 485.856C191.318 485.365 190.955 484.992 190.496 484.736C190.048 484.48 189.552 484.352 189.008 484.352C188.475 484.352 187.979 484.485 187.52 484.752C187.072 485.008 186.71 485.387 186.432 485.888C186.166 486.379 186.032 486.949 186.032 487.6C186.032 488.261 186.166 488.843 186.432 489.344C186.71 489.835 187.072 490.213 187.52 490.48C187.979 490.736 188.475 490.864 189.008 490.864C189.552 490.864 190.048 490.736 190.496 490.48C190.955 490.213 191.318 489.835 191.584 489.344C191.851 488.843 191.984 488.256 191.984 487.584ZM203.101 483.232L197.821 496.128H196.317L198.045 491.904L194.509 483.232H196.125L198.877 490.336L201.597 483.232H203.101ZM206.181 484.656C206.437 484.155 206.799 483.765 207.269 483.488C207.749 483.211 208.33 483.072 209.013 483.072V484.576H208.629C206.997 484.576 206.181 485.461 206.181 487.232V492H204.725V483.232H206.181V484.656ZM211.605 481.808C211.328 481.808 211.093 481.712 210.901 481.52C210.709 481.328 210.613 481.093 210.613 480.816C210.613 480.539 210.709 480.304 210.901 480.112C211.093 479.92 211.328 479.824 211.605 479.824C211.872 479.824 212.096 479.92 212.277 480.112C212.469 480.304 212.565 480.539 212.565 480.816C212.565 481.093 212.469 481.328 212.277 481.52C212.096 481.712 211.872 481.808 211.605 481.808ZM212.309 483.232V492H210.853V483.232H212.309ZM218.567 483.088C219.324 483.088 219.985 483.253 220.551 483.584C221.127 483.915 221.553 484.331 221.831 484.832V483.232H223.303V492.192C223.303 492.992 223.132 493.701 222.791 494.32C222.449 494.949 221.959 495.44 221.319 495.792C220.689 496.144 219.953 496.32 219.111 496.32C217.959 496.32 216.999 496.048 216.231 495.504C215.463 494.96 215.009 494.219 214.871 493.28H216.311C216.471 493.813 216.801 494.24 217.303 494.56C217.804 494.891 218.407 495.056 219.111 495.056C219.911 495.056 220.561 494.805 221.063 494.304C221.575 493.803 221.831 493.099 221.831 492.192V490.352C221.543 490.864 221.116 491.291 220.551 491.632C219.985 491.973 219.324 492.144 218.567 492.144C217.788 492.144 217.079 491.952 216.439 491.568C215.809 491.184 215.313 490.645 214.951 489.952C214.588 489.259 214.407 488.469 214.407 487.584C214.407 486.688 214.588 485.904 214.951 485.232C215.313 484.549 215.809 484.021 216.439 483.648C217.079 483.275 217.788 483.088 218.567 483.088ZM221.831 487.6C221.831 486.939 221.697 486.363 221.431 485.872C221.164 485.381 220.801 485.008 220.343 484.752C219.895 484.485 219.399 484.352 218.855 484.352C218.311 484.352 217.815 484.48 217.367 484.736C216.919 484.992 216.561 485.365 216.295 485.856C216.028 486.347 215.895 486.923 215.895 487.584C215.895 488.256 216.028 488.843 216.295 489.344C216.561 489.835 216.919 490.213 217.367 490.48C217.815 490.736 218.311 490.864 218.855 490.864C219.399 490.864 219.895 490.736 220.343 490.48C220.801 490.213 221.164 489.835 221.431 489.344C221.697 488.843 221.831 488.261 221.831 487.6ZM230.275 483.072C230.937 483.072 231.534 483.216 232.067 483.504C232.601 483.781 233.017 484.203 233.315 484.768C233.625 485.333 233.779 486.021 233.779 486.832V492H232.339V487.04C232.339 486.165 232.121 485.499 231.683 485.04C231.246 484.571 230.649 484.336 229.891 484.336C229.123 484.336 228.51 484.576 228.051 485.056C227.603 485.536 227.379 486.235 227.379 487.152V492H225.923V480.16H227.379V484.48C227.667 484.032 228.062 483.685 228.563 483.44C229.075 483.195 229.646 483.072 230.275 483.072ZM238.094 484.432V489.6C238.094 490.027 238.184 490.331 238.366 490.512C238.547 490.683 238.862 490.768 239.31 490.768H240.382V492H239.07C238.259 492 237.651 491.813 237.246 491.44C236.84 491.067 236.638 490.453 236.638 489.6V484.432H235.502V483.232H236.638V481.024H238.094V483.232H240.382V484.432H238.094ZM245.41 492.144C244.738 492.144 244.135 492.032 243.602 491.808C243.068 491.573 242.647 491.253 242.338 490.848C242.028 490.432 241.858 489.957 241.826 489.424H243.33C243.372 489.861 243.575 490.219 243.938 490.496C244.311 490.773 244.796 490.912 245.394 490.912C245.948 490.912 246.386 490.789 246.706 490.544C247.026 490.299 247.186 489.989 247.186 489.616C247.186 489.232 247.015 488.949 246.674 488.768C246.332 488.576 245.804 488.389 245.09 488.208C244.439 488.037 243.906 487.867 243.49 487.696C243.084 487.515 242.732 487.253 242.434 486.912C242.146 486.56 242.002 486.101 242.002 485.536C242.002 485.088 242.135 484.677 242.402 484.304C242.668 483.931 243.047 483.637 243.538 483.424C244.028 483.2 244.588 483.088 245.218 483.088C246.188 483.088 246.972 483.333 247.57 483.824C248.167 484.315 248.487 484.987 248.53 485.84H247.074C247.042 485.381 246.855 485.013 246.514 484.736C246.183 484.459 245.735 484.32 245.17 484.32C244.647 484.32 244.231 484.432 243.922 484.656C243.612 484.88 243.458 485.173 243.458 485.536C243.458 485.824 243.548 486.064 243.73 486.256C243.922 486.437 244.156 486.587 244.434 486.704C244.722 486.811 245.116 486.933 245.618 487.072C246.247 487.243 246.759 487.413 247.154 487.584C247.548 487.744 247.884 487.989 248.162 488.32C248.45 488.651 248.599 489.083 248.61 489.616C248.61 490.096 248.476 490.528 248.21 490.912C247.943 491.296 247.564 491.6 247.074 491.824C246.594 492.037 246.039 492.144 245.41 492.144ZM256.707 490.816H260.611V492H255.251V480.848H256.707V490.816ZM270.093 483.232V492H268.637V490.704C268.36 491.152 267.97 491.504 267.469 491.76C266.978 492.005 266.434 492.128 265.837 492.128C265.154 492.128 264.541 491.989 263.997 491.712C263.453 491.424 263.021 490.997 262.701 490.432C262.392 489.867 262.237 489.179 262.237 488.368V483.232H263.677V488.176C263.677 489.04 263.896 489.707 264.333 490.176C264.77 490.635 265.368 490.864 266.125 490.864C266.904 490.864 267.517 490.624 267.965 490.144C268.413 489.664 268.637 488.965 268.637 488.048V483.232H270.093ZM277.287 492L275.207 488.736L273.207 492H271.687L274.519 487.648L271.687 483.232H273.335L275.415 486.48L277.399 483.232H278.919L276.103 487.568L278.935 492H277.287ZM284.352 492.144C283.53 492.144 282.784 491.957 282.112 491.584C281.45 491.211 280.928 490.683 280.544 490C280.17 489.307 279.984 488.507 279.984 487.6C279.984 486.704 280.176 485.915 280.56 485.232C280.954 484.539 281.488 484.011 282.16 483.648C282.832 483.275 283.584 483.088 284.416 483.088C285.248 483.088 286 483.275 286.672 483.648C287.344 484.011 287.872 484.533 288.256 485.216C288.65 485.899 288.848 486.693 288.848 487.6C288.848 488.507 288.645 489.307 288.24 490C287.845 490.683 287.306 491.211 286.624 491.584C285.941 491.957 285.184 492.144 284.352 492.144ZM284.352 490.864C284.874 490.864 285.365 490.741 285.824 490.496C286.282 490.251 286.65 489.883 286.928 489.392C287.216 488.901 287.36 488.304 287.36 487.6C287.36 486.896 287.221 486.299 286.944 485.808C286.666 485.317 286.304 484.955 285.856 484.72C285.408 484.475 284.922 484.352 284.4 484.352C283.866 484.352 283.376 484.475 282.928 484.72C282.49 484.955 282.138 485.317 281.872 485.808C281.605 486.299 281.472 486.896 281.472 487.6C281.472 488.315 281.6 488.917 281.856 489.408C282.122 489.899 282.474 490.267 282.912 490.512C283.349 490.747 283.829 490.864 284.352 490.864ZM295.194 483.072C296.261 483.072 297.125 483.397 297.786 484.048C298.447 484.688 298.778 485.616 298.778 486.832V492H297.338V487.04C297.338 486.165 297.119 485.499 296.682 485.04C296.245 484.571 295.647 484.336 294.89 484.336C294.122 484.336 293.509 484.576 293.05 485.056C292.602 485.536 292.378 486.235 292.378 487.152V492H290.922V483.232H292.378V484.48C292.666 484.032 293.055 483.685 293.546 483.44C294.047 483.195 294.597 483.072 295.194 483.072ZM302.068 481.808C301.791 481.808 301.556 481.712 301.364 481.52C301.172 481.328 301.076 481.093 301.076 480.816C301.076 480.539 301.172 480.304 301.364 480.112C301.556 479.92 301.791 479.824 302.068 479.824C302.335 479.824 302.559 479.92 302.74 480.112C302.932 480.304 303.028 480.539 303.028 480.816C303.028 481.093 302.932 481.328 302.74 481.52C302.559 481.712 302.335 481.808 302.068 481.808ZM302.772 483.232V492H301.316V483.232H302.772ZM310.31 492L306.87 488.128V492H305.414V480.16H306.87V487.12L310.246 483.232H312.278L308.15 487.6L312.294 492H310.31ZM320.058 493.696H318.602V479.28H320.058V493.696ZM334.068 489.52H329.204L328.308 492H326.772L330.804 480.912H332.484L336.5 492H334.964L334.068 489.52ZM333.652 488.336L331.636 482.704L329.62 488.336H333.652ZM339.873 480.16V492H338.417V480.16H339.873ZM343.971 480.16V492H342.515V480.16H343.971ZM356.91 492L354.254 487.44H352.494V492H351.038V480.848H354.638C355.48 480.848 356.19 480.992 356.766 481.28C357.352 481.568 357.79 481.957 358.078 482.448C358.366 482.939 358.51 483.499 358.51 484.128C358.51 484.896 358.286 485.573 357.838 486.16C357.4 486.747 356.739 487.136 355.854 487.328L358.654 492H356.91ZM352.494 486.272H354.638C355.427 486.272 356.019 486.08 356.414 485.696C356.808 485.301 357.006 484.779 357.006 484.128C357.006 483.467 356.808 482.955 356.414 482.592C356.03 482.229 355.438 482.048 354.638 482.048H352.494V486.272ZM361.684 481.808C361.407 481.808 361.172 481.712 360.98 481.52C360.788 481.328 360.692 481.093 360.692 480.816C360.692 480.539 360.788 480.304 360.98 480.112C361.172 479.92 361.407 479.824 361.684 479.824C361.951 479.824 362.175 479.92 362.356 480.112C362.548 480.304 362.644 480.539 362.644 480.816C362.644 481.093 362.548 481.328 362.356 481.52C362.175 481.712 361.951 481.808 361.684 481.808ZM362.388 483.232V492H360.932V483.232H362.388ZM368.646 483.088C369.403 483.088 370.064 483.253 370.63 483.584C371.206 483.915 371.632 484.331 371.91 484.832V483.232H373.382V492.192C373.382 492.992 373.211 493.701 372.87 494.32C372.528 494.949 372.038 495.44 371.398 495.792C370.768 496.144 370.032 496.32 369.19 496.32C368.038 496.32 367.078 496.048 366.31 495.504C365.542 494.96 365.088 494.219 364.95 493.28H366.39C366.55 493.813 366.88 494.24 367.382 494.56C367.883 494.891 368.486 495.056 369.19 495.056C369.99 495.056 370.64 494.805 371.142 494.304C371.654 493.803 371.91 493.099 371.91 492.192V490.352C371.622 490.864 371.195 491.291 370.63 491.632C370.064 491.973 369.403 492.144 368.646 492.144C367.867 492.144 367.158 491.952 366.518 491.568C365.888 491.184 365.392 490.645 365.03 489.952C364.667 489.259 364.486 488.469 364.486 487.584C364.486 486.688 364.667 485.904 365.03 485.232C365.392 484.549 365.888 484.021 366.518 483.648C367.158 483.275 367.867 483.088 368.646 483.088ZM371.91 487.6C371.91 486.939 371.776 486.363 371.51 485.872C371.243 485.381 370.88 485.008 370.422 484.752C369.974 484.485 369.478 484.352 368.934 484.352C368.39 484.352 367.894 484.48 367.446 484.736C366.998 484.992 366.64 485.365 366.374 485.856C366.107 486.347 365.974 486.923 365.974 487.584C365.974 488.256 366.107 488.843 366.374 489.344C366.64 489.835 366.998 490.213 367.446 490.48C367.894 490.736 368.39 490.864 368.934 490.864C369.478 490.864 369.974 490.736 370.422 490.48C370.88 490.213 371.243 489.835 371.51 489.344C371.776 488.843 371.91 488.261 371.91 487.6ZM380.354 483.072C381.015 483.072 381.613 483.216 382.146 483.504C382.679 483.781 383.095 484.203 383.394 484.768C383.703 485.333 383.858 486.021 383.858 486.832V492H382.418V487.04C382.418 486.165 382.199 485.499 381.762 485.04C381.325 484.571 380.727 484.336 379.97 484.336C379.202 484.336 378.589 484.576 378.13 485.056C377.682 485.536 377.458 486.235 377.458 487.152V492H376.002V480.16H377.458V484.48C377.746 484.032 378.141 483.685 378.642 483.44C379.154 483.195 379.725 483.072 380.354 483.072ZM388.172 484.432V489.6C388.172 490.027 388.263 490.331 388.444 490.512C388.626 490.683 388.94 490.768 389.388 490.768H390.46V492H389.148C388.338 492 387.73 491.813 387.324 491.44C386.919 491.067 386.716 490.453 386.716 489.6V484.432H385.58V483.232H386.716V481.024H388.172V483.232H390.46V484.432H388.172ZM395.488 492.144C394.816 492.144 394.214 492.032 393.68 491.808C393.147 491.573 392.726 491.253 392.416 490.848C392.107 490.432 391.936 489.957 391.904 489.424H393.408C393.451 489.861 393.654 490.219 394.016 490.496C394.39 490.773 394.875 490.912 395.472 490.912C396.027 490.912 396.464 490.789 396.784 490.544C397.104 490.299 397.264 489.989 397.264 489.616C397.264 489.232 397.094 488.949 396.752 488.768C396.411 488.576 395.883 488.389 395.168 488.208C394.518 488.037 393.984 487.867 393.568 487.696C393.163 487.515 392.811 487.253 392.512 486.912C392.224 486.56 392.08 486.101 392.08 485.536C392.08 485.088 392.214 484.677 392.48 484.304C392.747 483.931 393.126 483.637 393.616 483.424C394.107 483.2 394.667 483.088 395.296 483.088C396.267 483.088 397.051 483.333 397.648 483.824C398.246 484.315 398.566 484.987 398.608 485.84H397.152C397.12 485.381 396.934 485.013 396.592 484.736C396.262 484.459 395.814 484.32 395.248 484.32C394.726 484.32 394.31 484.432 394 484.656C393.691 484.88 393.536 485.173 393.536 485.536C393.536 485.824 393.627 486.064 393.808 486.256C394 486.437 394.235 486.587 394.512 486.704C394.8 486.811 395.195 486.933 395.696 487.072C396.326 487.243 396.838 487.413 397.232 487.584C397.627 487.744 397.963 487.989 398.24 488.32C398.528 488.651 398.678 489.083 398.688 489.616C398.688 490.096 398.555 490.528 398.288 490.912C398.022 491.296 397.643 491.6 397.152 491.824C396.672 492.037 396.118 492.144 395.488 492.144ZM411.202 492L408.546 487.44H406.786V492H405.33V480.848H408.93C409.772 480.848 410.482 480.992 411.058 481.28C411.644 481.568 412.082 481.957 412.37 482.448C412.658 482.939 412.802 483.499 412.802 484.128C412.802 484.896 412.578 485.573 412.13 486.16C411.692 486.747 411.031 487.136 410.146 487.328L412.946 492H411.202ZM406.786 486.272H408.93C409.719 486.272 410.311 486.08 410.706 485.696C411.1 485.301 411.298 484.779 411.298 484.128C411.298 483.467 411.1 482.955 410.706 482.592C410.322 482.229 409.73 482.048 408.93 482.048H406.786V486.272ZM423.224 487.28C423.224 487.557 423.208 487.851 423.176 488.16H416.168C416.221 489.024 416.515 489.701 417.048 490.192C417.592 490.672 418.248 490.912 419.016 490.912C419.645 490.912 420.168 490.768 420.584 490.48C421.011 490.181 421.309 489.787 421.48 489.296H423.048C422.813 490.139 422.344 490.827 421.64 491.36C420.936 491.883 420.061 492.144 419.016 492.144C418.184 492.144 417.437 491.957 416.776 491.584C416.125 491.211 415.613 490.683 415.24 490C414.867 489.307 414.68 488.507 414.68 487.6C414.68 486.693 414.861 485.899 415.224 485.216C415.587 484.533 416.093 484.011 416.744 483.648C417.405 483.275 418.163 483.088 419.016 483.088C419.848 483.088 420.584 483.269 421.224 483.632C421.864 483.995 422.355 484.496 422.696 485.136C423.048 485.765 423.224 486.48 423.224 487.28ZM421.72 486.976C421.72 486.421 421.597 485.947 421.352 485.552C421.107 485.147 420.771 484.843 420.344 484.64C419.928 484.427 419.464 484.32 418.952 484.32C418.216 484.32 417.587 484.555 417.064 485.024C416.552 485.493 416.259 486.144 416.184 486.976H421.72ZM428.41 492.144C427.738 492.144 427.135 492.032 426.602 491.808C426.068 491.573 425.647 491.253 425.338 490.848C425.028 490.432 424.858 489.957 424.826 489.424H426.33C426.372 489.861 426.575 490.219 426.938 490.496C427.311 490.773 427.796 490.912 428.394 490.912C428.948 490.912 429.386 490.789 429.706 490.544C430.026 490.299 430.186 489.989 430.186 489.616C430.186 489.232 430.015 488.949 429.674 488.768C429.332 488.576 428.804 488.389 428.09 488.208C427.439 488.037 426.906 487.867 426.49 487.696C426.084 487.515 425.732 487.253 425.434 486.912C425.146 486.56 425.002 486.101 425.002 485.536C425.002 485.088 425.135 484.677 425.402 484.304C425.668 483.931 426.047 483.637 426.538 483.424C427.028 483.2 427.588 483.088 428.218 483.088C429.188 483.088 429.972 483.333 430.57 483.824C431.167 484.315 431.487 484.987 431.53 485.84H430.074C430.042 485.381 429.855 485.013 429.514 484.736C429.183 484.459 428.735 484.32 428.17 484.32C427.647 484.32 427.231 484.432 426.922 484.656C426.612 484.88 426.458 485.173 426.458 485.536C426.458 485.824 426.548 486.064 426.73 486.256C426.922 486.437 427.156 486.587 427.434 486.704C427.722 486.811 428.116 486.933 428.618 487.072C429.247 487.243 429.759 487.413 430.154 487.584C430.548 487.744 430.884 487.989 431.162 488.32C431.45 488.651 431.599 489.083 431.61 489.616C431.61 490.096 431.476 490.528 431.21 490.912C430.943 491.296 430.564 491.6 430.074 491.824C429.594 492.037 429.039 492.144 428.41 492.144ZM441.825 487.28C441.825 487.557 441.809 487.851 441.777 488.16H434.769C434.822 489.024 435.116 489.701 435.649 490.192C436.193 490.672 436.849 490.912 437.617 490.912C438.246 490.912 438.769 490.768 439.185 490.48C439.612 490.181 439.91 489.787 440.081 489.296H441.649C441.414 490.139 440.945 490.827 440.241 491.36C439.537 491.883 438.662 492.144 437.617 492.144C436.785 492.144 436.038 491.957 435.377 491.584C434.726 491.211 434.214 490.683 433.841 490C433.468 489.307 433.281 488.507 433.281 487.6C433.281 486.693 433.462 485.899 433.825 485.216C434.188 484.533 434.694 484.011 435.345 483.648C436.006 483.275 436.764 483.088 437.617 483.088C438.449 483.088 439.185 483.269 439.825 483.632C440.465 483.995 440.956 484.496 441.297 485.136C441.649 485.765 441.825 486.48 441.825 487.28ZM440.321 486.976C440.321 486.421 440.198 485.947 439.953 485.552C439.708 485.147 439.372 484.843 438.945 484.64C438.529 484.427 438.065 484.32 437.553 484.32C436.817 484.32 436.188 484.555 435.665 485.024C435.153 485.493 434.86 486.144 434.785 486.976H440.321ZM445.363 484.656C445.619 484.155 445.982 483.765 446.451 483.488C446.931 483.211 447.512 483.072 448.195 483.072V484.576H447.811C446.179 484.576 445.363 485.461 445.363 487.232V492H443.907V483.232H445.363V484.656ZM453.3 490.656L456.02 483.232H457.572L454.132 492H452.436L448.996 483.232H450.564L453.3 490.656ZM467.164 487.28C467.164 487.557 467.148 487.851 467.116 488.16H460.108C460.162 489.024 460.455 489.701 460.988 490.192C461.532 490.672 462.188 490.912 462.956 490.912C463.586 490.912 464.108 490.768 464.524 490.48C464.951 490.181 465.25 489.787 465.42 489.296H466.988C466.754 490.139 466.284 490.827 465.58 491.36C464.876 491.883 464.002 492.144 462.956 492.144C462.124 492.144 461.378 491.957 460.716 491.584C460.066 491.211 459.554 490.683 459.18 490C458.807 489.307 458.62 488.507 458.62 487.6C458.62 486.693 458.802 485.899 459.164 485.216C459.527 484.533 460.034 484.011 460.684 483.648C461.346 483.275 462.103 483.088 462.956 483.088C463.788 483.088 464.524 483.269 465.164 483.632C465.804 483.995 466.295 484.496 466.636 485.136C466.988 485.765 467.164 486.48 467.164 487.28ZM465.66 486.976C465.66 486.421 465.538 485.947 465.292 485.552C465.047 485.147 464.711 484.843 464.284 484.64C463.868 484.427 463.404 484.32 462.892 484.32C462.156 484.32 461.527 484.555 461.004 485.024C460.492 485.493 460.199 486.144 460.124 486.976H465.66ZM468.702 487.584C468.702 486.688 468.884 485.904 469.246 485.232C469.609 484.549 470.105 484.021 470.734 483.648C471.374 483.275 472.089 483.088 472.878 483.088C473.561 483.088 474.196 483.248 474.782 483.568C475.369 483.877 475.817 484.288 476.126 484.8V480.16H477.598V492H476.126V490.352C475.838 490.875 475.412 491.307 474.846 491.648C474.281 491.979 473.62 492.144 472.862 492.144C472.084 492.144 471.374 491.952 470.734 491.568C470.105 491.184 469.609 490.645 469.246 489.952C468.884 489.259 468.702 488.469 468.702 487.584ZM476.126 487.6C476.126 486.939 475.993 486.363 475.726 485.872C475.46 485.381 475.097 485.008 474.638 484.752C474.19 484.485 473.694 484.352 473.15 484.352C472.606 484.352 472.11 484.48 471.662 484.736C471.214 484.992 470.857 485.365 470.59 485.856C470.324 486.347 470.19 486.923 470.19 487.584C470.19 488.256 470.324 488.843 470.59 489.344C470.857 489.835 471.214 490.213 471.662 490.48C472.11 490.736 472.606 490.864 473.15 490.864C473.694 490.864 474.19 490.736 474.638 490.48C475.097 490.213 475.46 489.835 475.726 489.344C475.993 488.843 476.126 488.261 476.126 487.6Z" fill="#828282"/>
<defs>
<clipPath id="clip0_739_194">
<rect width="622" height="93.9617" fill="white" transform="translate(0 51.2891)"/>
</clipPath>
<clipPath id="clip1_739_194">
<rect width="24" height="24" fill="white" transform="translate(179 410)"/>
</clipPath>
<clipPath id="clip2_739_194">
<rect width="24" height="24" fill="white" transform="translate(227 410)"/>
</clipPath>
<clipPath id="clip3_739_194">
<rect width="24" height="24" fill="white" transform="translate(275 410)"/>
</clipPath>
<clipPath id="clip4_739_194">
<rect width="24" height="24" fill="white" transform="translate(323 410)"/>
</clipPath>
<clipPath id="clip5_739_194">
<rect width="24" height="24" fill="white" transform="translate(371 410)"/>
</clipPath>
<clipPath id="clip6_739_194">
<rect width="24" height="24" fill="white" transform="translate(419 410)"/>
</clipPath>
</defs>
</svg>
