<svg width="336" height="88" viewBox="0 0 336 88" fill="none" xmlns="http://www.w3.org/2000/svg">
<g clip-path="url(#clip0_739_199)">
<path d="M50 13.5H52.5L53.5 9.5H50V7.5C50 6.47 50 5.5 52 5.5H53.5V2.14C53.174 2.097 51.943 2 50.643 2C47.928 2 46 3.657 46 6.7V9.5H43V13.5H46V22H50V13.5Z" fill="white"/>
</g>
<g clip-path="url(#clip1_739_199)">
<path d="M106.162 5.65593C105.399 5.99362 104.589 6.2154 103.76 6.31393C104.634 5.79136 105.288 4.96894 105.6 3.99993C104.78 4.48793 103.881 4.82993 102.944 5.01493C102.315 4.34151 101.48 3.89489 100.571 3.74451C99.6615 3.59413 98.7279 3.74842 97.9153 4.18338C97.1026 4.61834 96.4564 5.30961 96.0771 6.14972C95.6978 6.98983 95.6067 7.93171 95.818 8.82893C94.1551 8.74558 92.5283 8.31345 91.0433 7.56059C89.5582 6.80773 88.2481 5.75097 87.198 4.45893C86.8263 5.09738 86.6309 5.82315 86.632 6.56193C86.632 8.01193 87.37 9.29293 88.492 10.0429C87.828 10.022 87.1786 9.84271 86.598 9.51993V9.57193C86.5982 10.5376 86.9324 11.4735 87.5438 12.221C88.1553 12.9684 89.0065 13.4814 89.953 13.6729C89.3366 13.84 88.6903 13.8646 88.063 13.7449C88.3299 14.5762 88.85 15.3031 89.5506 15.824C90.2512 16.3449 91.0971 16.6337 91.97 16.6499C91.1025 17.3313 90.1092 17.8349 89.0469 18.1321C87.9846 18.4293 86.8741 18.5142 85.779 18.3819C87.6907 19.6114 89.9161 20.264 92.189 20.2619C99.882 20.2619 104.089 13.8889 104.089 8.36193C104.089 8.18193 104.084 7.99993 104.076 7.82193C104.895 7.23009 105.602 6.49695 106.163 5.65693L106.162 5.65593Z" fill="white"/>
</g>
<g clip-path="url(#clip2_739_199)">
<path d="M143.871 21.764C142.681 21.764 141.887 21.203 141.178 20.708C140.675 20.351 140.202 20.012 139.645 19.918C139.38 19.8724 139.111 19.8503 138.842 19.852C138.37 19.852 137.995 19.923 137.728 19.977C137.558 20.007 137.416 20.035 137.304 20.035C137.188 20.035 137.041 20.003 136.984 19.807C136.934 19.647 136.903 19.495 136.872 19.348C136.792 18.978 136.725 18.751 136.586 18.728C135.097 18.501 134.206 18.158 134.032 17.752C134.018 17.708 134.001 17.662 134.001 17.627C133.991 17.502 134.081 17.4 134.206 17.377C135.387 17.181 136.448 16.553 137.344 15.519C138.04 14.716 138.379 13.94 138.41 13.856C138.41 13.846 138.419 13.846 138.419 13.846C138.589 13.495 138.624 13.196 138.521 12.951C138.33 12.491 137.696 12.295 137.264 12.161C137.153 12.131 137.059 12.095 136.979 12.068C136.609 11.921 135.993 11.608 136.074 11.176C136.132 10.864 136.546 10.641 136.885 10.641C136.979 10.641 137.059 10.655 137.125 10.691C137.505 10.864 137.848 10.953 138.142 10.953C138.508 10.953 138.682 10.815 138.726 10.771C138.717 10.5732 138.705 10.3755 138.691 10.178C138.601 8.813 138.499 7.119 138.931 6.148C140.229 3.241 142.984 3.008 143.8 3.008L144.156 3H144.206C145.021 3 147.776 3.227 149.074 6.139C149.511 7.11 149.404 8.809 149.314 10.169L149.306 10.236C149.296 10.418 149.283 10.592 149.274 10.771C149.319 10.806 149.479 10.94 149.809 10.944C150.095 10.936 150.407 10.842 150.763 10.681C150.862 10.6384 150.968 10.6159 151.075 10.615C151.2 10.615 151.325 10.645 151.432 10.681H151.441C151.74 10.793 151.936 11.002 151.936 11.221C151.945 11.426 151.784 11.738 151.022 12.046C150.942 12.076 150.848 12.113 150.737 12.139C150.313 12.269 149.68 12.474 149.479 12.929C149.368 13.169 149.413 13.477 149.582 13.824C149.582 13.834 149.591 13.834 149.591 13.834C149.64 13.958 150.928 16.883 153.795 17.36C153.854 17.3699 153.907 17.4006 153.944 17.4466C153.982 17.4926 154.002 17.5506 154 17.61C154 17.654 153.991 17.699 153.969 17.739C153.795 18.149 152.912 18.483 151.414 18.715C151.276 18.737 151.209 18.965 151.129 19.335C151.097 19.4892 151.06 19.6423 151.017 19.794C150.973 19.941 150.879 20.021 150.719 20.021H150.696C150.594 20.021 150.456 20.008 150.273 19.972C149.906 19.8939 149.533 19.855 149.158 19.856C148.895 19.856 148.623 19.879 148.356 19.923C147.803 20.013 147.326 20.356 146.822 20.713C146.105 21.203 145.307 21.764 144.125 21.764H143.871Z" fill="white"/>
</g>
<g clip-path="url(#clip3_739_199)">
<path d="M192 2C194.717 2 195.056 2.01 196.122 2.06C197.187 2.11 197.912 2.277 198.55 2.525C199.21 2.779 199.766 3.123 200.322 3.678C200.83 4.1779 201.224 4.78259 201.475 5.45C201.722 6.087 201.89 6.813 201.94 7.878C201.987 8.944 202 9.283 202 12C202 14.717 201.99 15.056 201.94 16.122C201.89 17.187 201.722 17.912 201.475 18.55C201.225 19.2178 200.831 19.8226 200.322 20.322C199.822 20.8303 199.217 21.2238 198.55 21.475C197.913 21.722 197.187 21.89 196.122 21.94C195.056 21.987 194.717 22 192 22C189.283 22 188.944 21.99 187.878 21.94C186.813 21.89 186.088 21.722 185.45 21.475C184.782 21.2245 184.178 20.8309 183.678 20.322C183.169 19.8222 182.776 19.2175 182.525 18.55C182.277 17.913 182.11 17.187 182.06 16.122C182.013 15.056 182 14.717 182 12C182 9.283 182.01 8.944 182.06 7.878C182.11 6.812 182.277 6.088 182.525 5.45C182.775 4.78218 183.169 4.17732 183.678 3.678C184.178 3.16923 184.782 2.77573 185.45 2.525C186.088 2.277 186.812 2.11 187.878 2.06C188.944 2.013 189.283 2 192 2ZM192 7C190.674 7 189.402 7.52678 188.464 8.46447C187.527 9.40215 187 10.6739 187 12C187 13.3261 187.527 14.5979 188.464 15.5355C189.402 16.4732 190.674 17 192 17C193.326 17 194.598 16.4732 195.536 15.5355C196.473 14.5979 197 13.3261 197 12C197 10.6739 196.473 9.40215 195.536 8.46447C194.598 7.52678 193.326 7 192 7ZM198.5 6.75C198.5 6.41848 198.368 6.10054 198.134 5.86612C197.899 5.6317 197.582 5.5 197.25 5.5C196.918 5.5 196.601 5.6317 196.366 5.86612C196.132 6.10054 196 6.41848 196 6.75C196 7.08152 196.132 7.39946 196.366 7.63388C196.601 7.8683 196.918 8 197.25 8C197.582 8 197.899 7.8683 198.134 7.63388C198.368 7.39946 198.5 7.08152 198.5 6.75ZM192 9C192.796 9 193.559 9.31607 194.121 9.87868C194.684 10.4413 195 11.2044 195 12C195 12.7956 194.684 13.5587 194.121 14.1213C193.559 14.6839 192.796 15 192 15C191.204 15 190.441 14.6839 189.879 14.1213C189.316 13.5587 189 12.7956 189 12C189 11.2044 189.316 10.4413 189.879 9.87868C190.441 9.31607 191.204 9 192 9Z" fill="white"/>
</g>
<g clip-path="url(#clip4_739_199)">
<path d="M246.335 18.339H243.67V14.162C243.67 13.166 243.65 11.884 242.28 11.884C240.891 11.884 240.679 12.968 240.679 14.089V18.339H238.013V9.75H240.573V10.92H240.608C240.966 10.246 241.836 9.533 243.136 9.533C245.836 9.533 246.336 11.311 246.336 13.624V18.339H246.335ZM235.003 8.575C234.8 8.57526 234.598 8.53537 234.41 8.45761C234.222 8.37984 234.051 8.26574 233.907 8.12184C233.764 7.97793 233.65 7.80706 233.572 7.61901C233.494 7.43097 233.455 7.22944 233.455 7.026C233.455 6.71983 233.546 6.4206 233.716 6.16615C233.887 5.91169 234.129 5.71343 234.412 5.59645C234.694 5.47947 235.006 5.44902 235.306 5.50894C235.606 5.56886 235.882 5.71648 236.098 5.93311C236.315 6.14974 236.462 6.42566 236.521 6.72598C236.581 7.0263 236.55 7.33753 236.433 7.62032C236.315 7.9031 236.117 8.14474 235.862 8.31467C235.608 8.4846 235.308 8.5752 235.002 8.575H235.003ZM236.339 18.339H233.666V9.75H236.34V18.339H236.339ZM247.67 3H232.329C231.593 3 231 3.58 231 4.297V19.703C231 20.42 231.594 21 232.328 21H247.666C248.4 21 249 20.42 249 19.703V4.297C249 3.58 248.4 3 247.666 3H247.669H247.67Z" fill="white"/>
</g>
<g clip-path="url(#clip5_739_199)">
<path d="M288 2C282.475 2 278 6.475 278 12C277.999 14.0993 278.659 16.1456 279.886 17.8487C281.114 19.5517 282.846 20.8251 284.838 21.488C285.338 21.575 285.525 21.275 285.525 21.012C285.525 20.775 285.512 19.988 285.512 19.15C283 19.613 282.35 18.538 282.15 17.975C282.037 17.687 281.55 16.8 281.125 16.562C280.775 16.375 280.275 15.912 281.112 15.9C281.9 15.887 282.462 16.625 282.65 16.925C283.55 18.437 284.988 18.012 285.562 17.75C285.65 17.1 285.912 16.663 286.2 16.413C283.975 16.163 281.65 15.3 281.65 11.475C281.65 10.387 282.037 9.488 282.675 8.787C282.575 8.537 282.225 7.512 282.775 6.137C282.775 6.137 283.612 5.875 285.525 7.163C286.339 6.93706 287.18 6.82334 288.025 6.825C288.875 6.825 289.725 6.937 290.525 7.162C292.437 5.862 293.275 6.138 293.275 6.138C293.825 7.513 293.475 8.538 293.375 8.788C294.012 9.488 294.4 10.375 294.4 11.475C294.4 15.313 292.063 16.163 289.838 16.413C290.2 16.725 290.513 17.325 290.513 18.263C290.513 19.6 290.5 20.675 290.5 21.013C290.5 21.275 290.688 21.587 291.188 21.487C293.173 20.8168 294.898 19.541 296.12 17.8392C297.342 16.1373 297.999 14.0951 298 12C298 6.475 293.525 2 288 2Z" fill="white"/>
</g>
<path d="M6.52513 70.736C7.60246 70.736 8.56246 70.9813 9.40513 71.472C10.2478 71.952 10.8985 72.624 11.3571 73.488C11.8265 74.3413 12.0611 75.3173 12.0611 76.416C12.0611 77.5147 11.8265 78.496 11.3571 79.36C10.8985 80.2133 10.2478 80.8853 9.40513 81.376C8.56246 81.856 7.60246 82.096 6.52513 82.096C5.43713 82.096 4.47179 81.856 3.62913 81.376C2.78646 80.8853 2.13046 80.2133 1.66113 79.36C1.19179 78.496 0.957126 77.5147 0.957126 76.416C0.957126 75.3173 1.19179 74.3413 1.66113 73.488C2.13046 72.624 2.78646 71.952 3.62913 71.472C4.47179 70.9813 5.43713 70.736 6.52513 70.736ZM6.52513 71.376C5.53313 71.376 4.66913 71.5893 3.93313 72.016C3.19713 72.432 2.63179 73.0187 2.23713 73.776C1.84246 74.5333 1.64513 75.4133 1.64513 76.416C1.64513 77.408 1.84246 78.288 2.23713 79.056C2.63179 79.8133 3.19713 80.4053 3.93313 80.832C4.66913 81.2587 5.53313 81.472 6.52513 81.472C7.50646 81.472 8.35979 81.2587 9.08513 80.832C9.82113 80.4053 10.3865 79.8133 10.7811 79.056C11.1758 78.288 11.3731 77.408 11.3731 76.416C11.3731 75.4133 11.1758 74.5333 10.7811 73.776C10.3865 73.0187 9.82113 72.432 9.08513 72.016C8.35979 71.5893 7.50646 71.376 6.52513 71.376ZM6.49313 72.704C5.85313 72.704 5.26646 72.8533 4.73313 73.152C4.21046 73.4507 3.79446 73.8827 3.48513 74.448C3.17579 75.0027 3.02113 75.6533 3.02113 76.4C3.02113 77.1467 3.17579 77.8027 3.48513 78.368C3.79446 78.9227 4.21046 79.3547 4.73313 79.664C5.26646 79.9627 5.85313 80.112 6.49313 80.112C7.29313 80.112 7.98646 79.8987 8.57313 79.472C9.15979 79.0347 9.55979 78.4533 9.77313 77.728H8.42913C8.10913 78.6133 7.46379 79.056 6.49313 79.056C5.85313 79.056 5.33046 78.8267 4.92513 78.368C4.51979 77.9093 4.31713 77.2587 4.31713 76.416C4.31713 75.5627 4.51979 74.9067 4.92513 74.448C5.33046 73.9893 5.85313 73.76 6.49313 73.76C6.96246 73.76 7.36779 73.8773 7.70913 74.112C8.05046 74.336 8.29046 74.6613 8.42913 75.088H9.77313C9.57046 74.3307 9.17579 73.744 8.58913 73.328C8.00246 72.912 7.30379 72.704 6.49313 72.704ZM18.1186 76.416C18.1186 75.328 18.364 74.352 18.8546 73.488C19.3453 72.6133 20.012 71.9307 20.8546 71.44C21.708 70.9493 22.652 70.704 23.6866 70.704C24.9026 70.704 25.964 70.9973 26.8706 71.584C27.7773 72.1707 28.4386 73.0027 28.8546 74.08H27.1106C26.8013 73.408 26.3533 72.8907 25.7666 72.528C25.1906 72.1653 24.4973 71.984 23.6866 71.984C22.908 71.984 22.2093 72.1653 21.5906 72.528C20.972 72.8907 20.4866 73.408 20.1346 74.08C19.7826 74.7413 19.6066 75.52 19.6066 76.416C19.6066 77.3013 19.7826 78.08 20.1346 78.752C20.4866 79.4133 20.972 79.9253 21.5906 80.288C22.2093 80.6507 22.908 80.832 23.6866 80.832C24.4973 80.832 25.1906 80.656 25.7666 80.304C26.3533 79.9413 26.8013 79.424 27.1106 78.752H28.8546C28.4386 79.8187 27.7773 80.6453 26.8706 81.232C25.964 81.808 24.9026 82.096 23.6866 82.096C22.652 82.096 21.708 81.856 20.8546 81.376C20.012 80.8853 19.3453 80.208 18.8546 79.344C18.364 78.48 18.1186 77.504 18.1186 76.416ZM35.006 82.144C34.1847 82.144 33.438 81.9573 32.766 81.584C32.1047 81.2107 31.582 80.6827 31.198 80C30.8247 79.3067 30.638 78.5067 30.638 77.6C30.638 76.704 30.83 75.9147 31.214 75.232C31.6087 74.5387 32.142 74.0107 32.814 73.648C33.486 73.2747 34.238 73.088 35.07 73.088C35.902 73.088 36.654 73.2747 37.326 73.648C37.998 74.0107 38.526 74.5333 38.91 75.216C39.3047 75.8987 39.502 76.6933 39.502 77.6C39.502 78.5067 39.2993 79.3067 38.894 80C38.4993 80.6827 37.9607 81.2107 37.278 81.584C36.5953 81.9573 35.838 82.144 35.006 82.144ZM35.006 80.864C35.5287 80.864 36.0193 80.7413 36.478 80.496C36.9367 80.2507 37.3047 79.8827 37.582 79.392C37.87 78.9013 38.014 78.304 38.014 77.6C38.014 76.896 37.8753 76.2987 37.598 75.808C37.3207 75.3173 36.958 74.9547 36.51 74.72C36.062 74.4747 35.5767 74.352 35.054 74.352C34.5207 74.352 34.03 74.4747 33.582 74.72C33.1447 74.9547 32.7927 75.3173 32.526 75.808C32.2593 76.2987 32.126 76.896 32.126 77.6C32.126 78.3147 32.254 78.9173 32.51 79.408C32.7767 79.8987 33.1287 80.2667 33.566 80.512C34.0033 80.7467 34.4833 80.864 35.006 80.864ZM43.0324 74.848C43.3204 74.3467 43.747 73.9307 44.3124 73.6C44.8884 73.2587 45.555 73.088 46.3124 73.088C47.091 73.088 47.795 73.2747 48.4244 73.648C49.0644 74.0213 49.5657 74.5493 49.9284 75.232C50.291 75.904 50.4724 76.688 50.4724 77.584C50.4724 78.4693 50.291 79.2587 49.9284 79.952C49.5657 80.6453 49.0644 81.184 48.4244 81.568C47.795 81.952 47.091 82.144 46.3124 82.144C45.5657 82.144 44.9044 81.9787 44.3284 81.648C43.763 81.3067 43.331 80.8853 43.0324 80.384V86.16H41.5764V73.232H43.0324V74.848ZM48.9844 77.584C48.9844 76.9227 48.851 76.3467 48.5844 75.856C48.3177 75.3653 47.955 74.992 47.4964 74.736C47.0484 74.48 46.5524 74.352 46.0084 74.352C45.475 74.352 44.979 74.4853 44.5204 74.752C44.0724 75.008 43.7097 75.3867 43.4324 75.888C43.1657 76.3787 43.0324 76.9493 43.0324 77.6C43.0324 78.2613 43.1657 78.8427 43.4324 79.344C43.7097 79.8347 44.0724 80.2133 44.5204 80.48C44.979 80.736 45.475 80.864 46.0084 80.864C46.5524 80.864 47.0484 80.736 47.4964 80.48C47.955 80.2133 48.3177 79.8347 48.5844 79.344C48.851 78.8427 48.9844 78.256 48.9844 77.584ZM60.1009 73.232L54.8209 86.128H53.3169L55.0449 81.904L51.5089 73.232H53.1249L55.8769 80.336L58.5969 73.232H60.1009ZM63.1805 74.656C63.4365 74.1547 63.7992 73.7653 64.2685 73.488C64.7485 73.2107 65.3298 73.072 66.0125 73.072V74.576H65.6285C63.9965 74.576 63.1805 75.4613 63.1805 77.232V82H61.7245V73.232H63.1805V74.656ZM68.6053 71.808C68.3279 71.808 68.0933 71.712 67.9013 71.52C67.7093 71.328 67.6133 71.0933 67.6133 70.816C67.6133 70.5387 67.7093 70.304 67.9013 70.112C68.0933 69.92 68.3279 69.824 68.6053 69.824C68.8719 69.824 69.0959 69.92 69.2773 70.112C69.4693 70.304 69.5653 70.5387 69.5653 70.816C69.5653 71.0933 69.4693 71.328 69.2773 71.52C69.0959 71.712 68.8719 71.808 68.6053 71.808ZM69.3093 73.232V82H67.8533V73.232H69.3093ZM75.5668 73.088C76.3241 73.088 76.9854 73.2533 77.5508 73.584C78.1268 73.9147 78.5534 74.3307 78.8308 74.832V73.232H80.3028V82.192C80.3028 82.992 80.1321 83.7013 79.7908 84.32C79.4494 84.9493 78.9588 85.44 78.3188 85.792C77.6894 86.144 76.9534 86.32 76.1108 86.32C74.9588 86.32 73.9988 86.048 73.2308 85.504C72.4628 84.96 72.0094 84.2187 71.8708 83.28H73.3108C73.4708 83.8133 73.8014 84.24 74.3028 84.56C74.8041 84.8907 75.4068 85.056 76.1108 85.056C76.9108 85.056 77.5614 84.8053 78.0628 84.304C78.5748 83.8027 78.8308 83.0987 78.8308 82.192V80.352C78.5428 80.864 78.1161 81.2907 77.5508 81.632C76.9854 81.9733 76.3241 82.144 75.5668 82.144C74.7881 82.144 74.0788 81.952 73.4388 81.568C72.8094 81.184 72.3134 80.6453 71.9508 79.952C71.5881 79.2587 71.4068 78.4693 71.4068 77.584C71.4068 76.688 71.5881 75.904 71.9508 75.232C72.3134 74.5493 72.8094 74.0213 73.4388 73.648C74.0788 73.2747 74.7881 73.088 75.5668 73.088ZM78.8308 77.6C78.8308 76.9387 78.6974 76.3627 78.4308 75.872C78.1641 75.3813 77.8014 75.008 77.3428 74.752C76.8948 74.4853 76.3988 74.352 75.8548 74.352C75.3108 74.352 74.8148 74.48 74.3668 74.736C73.9188 74.992 73.5614 75.3653 73.2948 75.856C73.0281 76.3467 72.8948 76.9227 72.8948 77.584C72.8948 78.256 73.0281 78.8427 73.2948 79.344C73.5614 79.8347 73.9188 80.2133 74.3668 80.48C74.8148 80.736 75.3108 80.864 75.8548 80.864C76.3988 80.864 76.8948 80.736 77.3428 80.48C77.8014 80.2133 78.1641 79.8347 78.4308 79.344C78.6974 78.8427 78.8308 78.2613 78.8308 77.6ZM87.2753 73.072C87.9366 73.072 88.5339 73.216 89.0673 73.504C89.6006 73.7813 90.0166 74.2027 90.3153 74.768C90.6246 75.3333 90.7793 76.0213 90.7793 76.832V82H89.3393V77.04C89.3393 76.1653 89.1206 75.4987 88.6833 75.04C88.2459 74.5707 87.6486 74.336 86.8913 74.336C86.1233 74.336 85.5099 74.576 85.0513 75.056C84.6033 75.536 84.3793 76.2347 84.3793 77.152V82H82.9233V70.16H84.3793V74.48C84.6673 74.032 85.0619 73.6853 85.5633 73.44C86.0753 73.1947 86.6459 73.072 87.2753 73.072ZM95.0936 74.432V79.6C95.0936 80.0267 95.1843 80.3307 95.3656 80.512C95.547 80.6827 95.8616 80.768 96.3096 80.768H97.3816V82H96.0696C95.259 82 94.651 81.8133 94.2456 81.44C93.8403 81.0667 93.6376 80.4533 93.6376 79.6V74.432H92.5016V73.232H93.6376V71.024H95.0936V73.232H97.3816V74.432H95.0936ZM102.41 82.144C101.738 82.144 101.135 82.032 100.602 81.808C100.068 81.5733 99.6471 81.2533 99.3378 80.848C99.0284 80.432 98.8578 79.9573 98.8258 79.424H100.33C100.372 79.8613 100.575 80.2187 100.938 80.496C101.311 80.7733 101.796 80.912 102.394 80.912C102.948 80.912 103.386 80.7893 103.706 80.544C104.026 80.2987 104.186 79.9893 104.186 79.616C104.186 79.232 104.015 78.9493 103.674 78.768C103.332 78.576 102.804 78.3893 102.09 78.208C101.439 78.0373 100.906 77.8667 100.49 77.696C100.084 77.5147 99.7324 77.2533 99.4338 76.912C99.1458 76.56 99.0018 76.1013 99.0018 75.536C99.0018 75.088 99.1351 74.6773 99.4018 74.304C99.6684 73.9307 100.047 73.6373 100.538 73.424C101.028 73.2 101.588 73.088 102.218 73.088C103.188 73.088 103.972 73.3333 104.57 73.824C105.167 74.3147 105.487 74.9867 105.53 75.84H104.074C104.042 75.3813 103.855 75.0133 103.514 74.736C103.183 74.4587 102.735 74.32 102.17 74.32C101.647 74.32 101.231 74.432 100.922 74.656C100.612 74.88 100.458 75.1733 100.458 75.536C100.458 75.824 100.548 76.064 100.73 76.256C100.922 76.4373 101.156 76.5867 101.434 76.704C101.722 76.8107 102.116 76.9333 102.618 77.072C103.247 77.2427 103.759 77.4133 104.154 77.584C104.548 77.744 104.884 77.9893 105.162 78.32C105.45 78.6507 105.599 79.0827 105.61 79.616C105.61 80.096 105.476 80.528 105.21 80.912C104.943 81.296 104.564 81.6 104.074 81.824C103.594 82.0373 103.039 82.144 102.41 82.144ZM113.707 80.816H117.611V82H112.251V70.848H113.707V80.816ZM127.093 73.232V82H125.637V80.704C125.36 81.152 124.97 81.504 124.469 81.76C123.978 82.0053 123.434 82.128 122.837 82.128C122.154 82.128 121.541 81.9893 120.997 81.712C120.453 81.424 120.021 80.9973 119.701 80.432C119.392 79.8667 119.237 79.1787 119.237 78.368V73.232H120.677V78.176C120.677 79.04 120.896 79.7067 121.333 80.176C121.77 80.6347 122.368 80.864 123.125 80.864C123.904 80.864 124.517 80.624 124.965 80.144C125.413 79.664 125.637 78.9653 125.637 78.048V73.232H127.093ZM134.287 82L132.207 78.736L130.207 82H128.687L131.519 77.648L128.687 73.232H130.335L132.415 76.48L134.399 73.232H135.919L133.103 77.568L135.935 82H134.287ZM141.352 82.144C140.53 82.144 139.784 81.9573 139.112 81.584C138.45 81.2107 137.928 80.6827 137.544 80C137.17 79.3067 136.984 78.5067 136.984 77.6C136.984 76.704 137.176 75.9147 137.56 75.232C137.954 74.5387 138.488 74.0107 139.16 73.648C139.832 73.2747 140.584 73.088 141.416 73.088C142.248 73.088 143 73.2747 143.672 73.648C144.344 74.0107 144.872 74.5333 145.256 75.216C145.65 75.8987 145.848 76.6933 145.848 77.6C145.848 78.5067 145.645 79.3067 145.24 80C144.845 80.6827 144.306 81.2107 143.624 81.584C142.941 81.9573 142.184 82.144 141.352 82.144ZM141.352 80.864C141.874 80.864 142.365 80.7413 142.824 80.496C143.282 80.2507 143.65 79.8827 143.928 79.392C144.216 78.9013 144.36 78.304 144.36 77.6C144.36 76.896 144.221 76.2987 143.944 75.808C143.666 75.3173 143.304 74.9547 142.856 74.72C142.408 74.4747 141.922 74.352 141.4 74.352C140.866 74.352 140.376 74.4747 139.928 74.72C139.49 74.9547 139.138 75.3173 138.872 75.808C138.605 76.2987 138.472 76.896 138.472 77.6C138.472 78.3147 138.6 78.9173 138.856 79.408C139.122 79.8987 139.474 80.2667 139.912 80.512C140.349 80.7467 140.829 80.864 141.352 80.864ZM152.194 73.072C153.261 73.072 154.125 73.3973 154.786 74.048C155.447 74.688 155.778 75.616 155.778 76.832V82H154.338V77.04C154.338 76.1653 154.119 75.4987 153.682 75.04C153.245 74.5707 152.647 74.336 151.89 74.336C151.122 74.336 150.509 74.576 150.05 75.056C149.602 75.536 149.378 76.2347 149.378 77.152V82H147.922V73.232H149.378V74.48C149.666 74.032 150.055 73.6853 150.546 73.44C151.047 73.1947 151.597 73.072 152.194 73.072ZM159.068 71.808C158.791 71.808 158.556 71.712 158.364 71.52C158.172 71.328 158.076 71.0933 158.076 70.816C158.076 70.5387 158.172 70.304 158.364 70.112C158.556 69.92 158.791 69.824 159.068 69.824C159.335 69.824 159.559 69.92 159.74 70.112C159.932 70.304 160.028 70.5387 160.028 70.816C160.028 71.0933 159.932 71.328 159.74 71.52C159.559 71.712 159.335 71.808 159.068 71.808ZM159.772 73.232V82H158.316V73.232H159.772ZM167.31 82L163.87 78.128V82H162.414V70.16H163.87V77.12L167.246 73.232H169.278L165.15 77.6L169.294 82H167.31ZM177.058 83.696H175.602V69.28H177.058V83.696ZM191.068 79.52H186.204L185.308 82H183.772L187.804 70.912H189.484L193.5 82H191.964L191.068 79.52ZM190.652 78.336L188.636 72.704L186.62 78.336H190.652ZM196.873 70.16V82H195.417V70.16H196.873ZM200.971 70.16V82H199.515V70.16H200.971ZM213.91 82L211.254 77.44H209.494V82H208.038V70.848H211.638C212.48 70.848 213.19 70.992 213.766 71.28C214.352 71.568 214.79 71.9573 215.078 72.448C215.366 72.9387 215.51 73.4987 215.51 74.128C215.51 74.896 215.286 75.5733 214.838 76.16C214.4 76.7467 213.739 77.136 212.854 77.328L215.654 82H213.91ZM209.494 76.272H211.638C212.427 76.272 213.019 76.08 213.414 75.696C213.808 75.3013 214.006 74.7787 214.006 74.128C214.006 73.4667 213.808 72.9547 213.414 72.592C213.03 72.2293 212.438 72.048 211.638 72.048H209.494V76.272ZM218.684 71.808C218.407 71.808 218.172 71.712 217.98 71.52C217.788 71.328 217.692 71.0933 217.692 70.816C217.692 70.5387 217.788 70.304 217.98 70.112C218.172 69.92 218.407 69.824 218.684 69.824C218.951 69.824 219.175 69.92 219.356 70.112C219.548 70.304 219.644 70.5387 219.644 70.816C219.644 71.0933 219.548 71.328 219.356 71.52C219.175 71.712 218.951 71.808 218.684 71.808ZM219.388 73.232V82H217.932V73.232H219.388ZM225.646 73.088C226.403 73.088 227.064 73.2533 227.63 73.584C228.206 73.9147 228.632 74.3307 228.91 74.832V73.232H230.382V82.192C230.382 82.992 230.211 83.7013 229.87 84.32C229.528 84.9493 229.038 85.44 228.398 85.792C227.768 86.144 227.032 86.32 226.19 86.32C225.038 86.32 224.078 86.048 223.31 85.504C222.542 84.96 222.088 84.2187 221.95 83.28H223.39C223.55 83.8133 223.88 84.24 224.382 84.56C224.883 84.8907 225.486 85.056 226.19 85.056C226.99 85.056 227.64 84.8053 228.142 84.304C228.654 83.8027 228.91 83.0987 228.91 82.192V80.352C228.622 80.864 228.195 81.2907 227.63 81.632C227.064 81.9733 226.403 82.144 225.646 82.144C224.867 82.144 224.158 81.952 223.518 81.568C222.888 81.184 222.392 80.6453 222.03 79.952C221.667 79.2587 221.486 78.4693 221.486 77.584C221.486 76.688 221.667 75.904 222.03 75.232C222.392 74.5493 222.888 74.0213 223.518 73.648C224.158 73.2747 224.867 73.088 225.646 73.088ZM228.91 77.6C228.91 76.9387 228.776 76.3627 228.51 75.872C228.243 75.3813 227.88 75.008 227.422 74.752C226.974 74.4853 226.478 74.352 225.934 74.352C225.39 74.352 224.894 74.48 224.446 74.736C223.998 74.992 223.64 75.3653 223.374 75.856C223.107 76.3467 222.974 76.9227 222.974 77.584C222.974 78.256 223.107 78.8427 223.374 79.344C223.64 79.8347 223.998 80.2133 224.446 80.48C224.894 80.736 225.39 80.864 225.934 80.864C226.478 80.864 226.974 80.736 227.422 80.48C227.88 80.2133 228.243 79.8347 228.51 79.344C228.776 78.8427 228.91 78.2613 228.91 77.6ZM237.354 73.072C238.015 73.072 238.613 73.216 239.146 73.504C239.679 73.7813 240.095 74.2027 240.394 74.768C240.703 75.3333 240.858 76.0213 240.858 76.832V82H239.418V77.04C239.418 76.1653 239.199 75.4987 238.762 75.04C238.325 74.5707 237.727 74.336 236.97 74.336C236.202 74.336 235.589 74.576 235.13 75.056C234.682 75.536 234.458 76.2347 234.458 77.152V82H233.002V70.16H234.458V74.48C234.746 74.032 235.141 73.6853 235.642 73.44C236.154 73.1947 236.725 73.072 237.354 73.072ZM245.172 74.432V79.6C245.172 80.0267 245.263 80.3307 245.444 80.512C245.626 80.6827 245.94 80.768 246.388 80.768H247.46V82H246.148C245.338 82 244.73 81.8133 244.324 81.44C243.919 81.0667 243.716 80.4533 243.716 79.6V74.432H242.58V73.232H243.716V71.024H245.172V73.232H247.46V74.432H245.172ZM252.488 82.144C251.816 82.144 251.214 82.032 250.68 81.808C250.147 81.5733 249.726 81.2533 249.416 80.848C249.107 80.432 248.936 79.9573 248.904 79.424H250.408C250.451 79.8613 250.654 80.2187 251.016 80.496C251.39 80.7733 251.875 80.912 252.472 80.912C253.027 80.912 253.464 80.7893 253.784 80.544C254.104 80.2987 254.264 79.9893 254.264 79.616C254.264 79.232 254.094 78.9493 253.752 78.768C253.411 78.576 252.883 78.3893 252.168 78.208C251.518 78.0373 250.984 77.8667 250.568 77.696C250.163 77.5147 249.811 77.2533 249.512 76.912C249.224 76.56 249.08 76.1013 249.08 75.536C249.08 75.088 249.214 74.6773 249.48 74.304C249.747 73.9307 250.126 73.6373 250.616 73.424C251.107 73.2 251.667 73.088 252.296 73.088C253.267 73.088 254.051 73.3333 254.648 73.824C255.246 74.3147 255.566 74.9867 255.608 75.84H254.152C254.12 75.3813 253.934 75.0133 253.592 74.736C253.262 74.4587 252.814 74.32 252.248 74.32C251.726 74.32 251.31 74.432 251 74.656C250.691 74.88 250.536 75.1733 250.536 75.536C250.536 75.824 250.627 76.064 250.808 76.256C251 76.4373 251.235 76.5867 251.512 76.704C251.8 76.8107 252.195 76.9333 252.696 77.072C253.326 77.2427 253.838 77.4133 254.232 77.584C254.627 77.744 254.963 77.9893 255.24 78.32C255.528 78.6507 255.678 79.0827 255.688 79.616C255.688 80.096 255.555 80.528 255.288 80.912C255.022 81.296 254.643 81.6 254.152 81.824C253.672 82.0373 253.118 82.144 252.488 82.144ZM268.202 82L265.546 77.44H263.786V82H262.33V70.848H265.93C266.772 70.848 267.482 70.992 268.058 71.28C268.644 71.568 269.082 71.9573 269.37 72.448C269.658 72.9387 269.802 73.4987 269.802 74.128C269.802 74.896 269.578 75.5733 269.13 76.16C268.692 76.7467 268.031 77.136 267.146 77.328L269.946 82H268.202ZM263.786 76.272H265.93C266.719 76.272 267.311 76.08 267.706 75.696C268.1 75.3013 268.298 74.7787 268.298 74.128C268.298 73.4667 268.1 72.9547 267.706 72.592C267.322 72.2293 266.73 72.048 265.93 72.048H263.786V76.272ZM280.224 77.28C280.224 77.5573 280.208 77.8507 280.176 78.16H273.168C273.221 79.024 273.515 79.7013 274.048 80.192C274.592 80.672 275.248 80.912 276.016 80.912C276.645 80.912 277.168 80.768 277.584 80.48C278.011 80.1813 278.309 79.7867 278.48 79.296H280.048C279.813 80.1387 279.344 80.8267 278.64 81.36C277.936 81.8827 277.061 82.144 276.016 82.144C275.184 82.144 274.437 81.9573 273.776 81.584C273.125 81.2107 272.613 80.6827 272.24 80C271.867 79.3067 271.68 78.5067 271.68 77.6C271.68 76.6933 271.861 75.8987 272.224 75.216C272.587 74.5333 273.093 74.0107 273.744 73.648C274.405 73.2747 275.163 73.088 276.016 73.088C276.848 73.088 277.584 73.2693 278.224 73.632C278.864 73.9947 279.355 74.496 279.696 75.136C280.048 75.7653 280.224 76.48 280.224 77.28ZM278.72 76.976C278.72 76.4213 278.597 75.9467 278.352 75.552C278.107 75.1467 277.771 74.8427 277.344 74.64C276.928 74.4267 276.464 74.32 275.952 74.32C275.216 74.32 274.587 74.5547 274.064 75.024C273.552 75.4933 273.259 76.144 273.184 76.976H278.72ZM285.41 82.144C284.738 82.144 284.135 82.032 283.602 81.808C283.068 81.5733 282.647 81.2533 282.338 80.848C282.028 80.432 281.858 79.9573 281.826 79.424H283.33C283.372 79.8613 283.575 80.2187 283.938 80.496C284.311 80.7733 284.796 80.912 285.394 80.912C285.948 80.912 286.386 80.7893 286.706 80.544C287.026 80.2987 287.186 79.9893 287.186 79.616C287.186 79.232 287.015 78.9493 286.674 78.768C286.332 78.576 285.804 78.3893 285.09 78.208C284.439 78.0373 283.906 77.8667 283.49 77.696C283.084 77.5147 282.732 77.2533 282.434 76.912C282.146 76.56 282.002 76.1013 282.002 75.536C282.002 75.088 282.135 74.6773 282.402 74.304C282.668 73.9307 283.047 73.6373 283.538 73.424C284.028 73.2 284.588 73.088 285.218 73.088C286.188 73.088 286.972 73.3333 287.57 73.824C288.167 74.3147 288.487 74.9867 288.53 75.84H287.074C287.042 75.3813 286.855 75.0133 286.514 74.736C286.183 74.4587 285.735 74.32 285.17 74.32C284.647 74.32 284.231 74.432 283.922 74.656C283.612 74.88 283.458 75.1733 283.458 75.536C283.458 75.824 283.548 76.064 283.73 76.256C283.922 76.4373 284.156 76.5867 284.434 76.704C284.722 76.8107 285.116 76.9333 285.618 77.072C286.247 77.2427 286.759 77.4133 287.154 77.584C287.548 77.744 287.884 77.9893 288.162 78.32C288.45 78.6507 288.599 79.0827 288.61 79.616C288.61 80.096 288.476 80.528 288.21 80.912C287.943 81.296 287.564 81.6 287.074 81.824C286.594 82.0373 286.039 82.144 285.41 82.144ZM298.825 77.28C298.825 77.5573 298.809 77.8507 298.777 78.16H291.769C291.822 79.024 292.116 79.7013 292.649 80.192C293.193 80.672 293.849 80.912 294.617 80.912C295.246 80.912 295.769 80.768 296.185 80.48C296.612 80.1813 296.91 79.7867 297.081 79.296H298.649C298.414 80.1387 297.945 80.8267 297.241 81.36C296.537 81.8827 295.662 82.144 294.617 82.144C293.785 82.144 293.038 81.9573 292.377 81.584C291.726 81.2107 291.214 80.6827 290.841 80C290.468 79.3067 290.281 78.5067 290.281 77.6C290.281 76.6933 290.462 75.8987 290.825 75.216C291.188 74.5333 291.694 74.0107 292.345 73.648C293.006 73.2747 293.764 73.088 294.617 73.088C295.449 73.088 296.185 73.2693 296.825 73.632C297.465 73.9947 297.956 74.496 298.297 75.136C298.649 75.7653 298.825 76.48 298.825 77.28ZM297.321 76.976C297.321 76.4213 297.198 75.9467 296.953 75.552C296.708 75.1467 296.372 74.8427 295.945 74.64C295.529 74.4267 295.065 74.32 294.553 74.32C293.817 74.32 293.188 74.5547 292.665 75.024C292.153 75.4933 291.86 76.144 291.785 76.976H297.321ZM302.363 74.656C302.619 74.1547 302.982 73.7653 303.451 73.488C303.931 73.2107 304.512 73.072 305.195 73.072V74.576H304.811C303.179 74.576 302.363 75.4613 302.363 77.232V82H300.907V73.232H302.363V74.656ZM310.3 80.656L313.02 73.232H314.572L311.132 82H309.436L305.996 73.232H307.564L310.3 80.656ZM324.164 77.28C324.164 77.5573 324.148 77.8507 324.116 78.16H317.108C317.162 79.024 317.455 79.7013 317.988 80.192C318.532 80.672 319.188 80.912 319.956 80.912C320.586 80.912 321.108 80.768 321.524 80.48C321.951 80.1813 322.25 79.7867 322.42 79.296H323.988C323.754 80.1387 323.284 80.8267 322.58 81.36C321.876 81.8827 321.002 82.144 319.956 82.144C319.124 82.144 318.378 81.9573 317.716 81.584C317.066 81.2107 316.554 80.6827 316.18 80C315.807 79.3067 315.62 78.5067 315.62 77.6C315.62 76.6933 315.802 75.8987 316.164 75.216C316.527 74.5333 317.034 74.0107 317.684 73.648C318.346 73.2747 319.103 73.088 319.956 73.088C320.788 73.088 321.524 73.2693 322.164 73.632C322.804 73.9947 323.295 74.496 323.636 75.136C323.988 75.7653 324.164 76.48 324.164 77.28ZM322.66 76.976C322.66 76.4213 322.538 75.9467 322.292 75.552C322.047 75.1467 321.711 74.8427 321.284 74.64C320.868 74.4267 320.404 74.32 319.892 74.32C319.156 74.32 318.527 74.5547 318.004 75.024C317.492 75.4933 317.199 76.144 317.124 76.976H322.66ZM325.702 77.584C325.702 76.688 325.884 75.904 326.246 75.232C326.609 74.5493 327.105 74.0213 327.734 73.648C328.374 73.2747 329.089 73.088 329.878 73.088C330.561 73.088 331.196 73.248 331.782 73.568C332.369 73.8773 332.817 74.288 333.126 74.8V70.16H334.598V82H333.126V80.352C332.838 80.8747 332.412 81.3067 331.846 81.648C331.281 81.9787 330.62 82.144 329.862 82.144C329.084 82.144 328.374 81.952 327.734 81.568C327.105 81.184 326.609 80.6453 326.246 79.952C325.884 79.2587 325.702 78.4693 325.702 77.584ZM333.126 77.6C333.126 76.9387 332.993 76.3627 332.726 75.872C332.46 75.3813 332.097 75.008 331.638 74.752C331.19 74.4853 330.694 74.352 330.15 74.352C329.606 74.352 329.11 74.48 328.662 74.736C328.214 74.992 327.857 75.3653 327.59 75.856C327.324 76.3467 327.19 76.9227 327.19 77.584C327.19 78.256 327.324 78.8427 327.59 79.344C327.857 79.8347 328.214 80.2133 328.662 80.48C329.11 80.736 329.606 80.864 330.15 80.864C330.694 80.864 331.19 80.736 331.638 80.48C332.097 80.2133 332.46 79.8347 332.726 79.344C332.993 78.8427 333.126 78.2613 333.126 77.6Z" fill="#828282"/>
<defs>
<clipPath id="clip0_739_199">
<rect width="24" height="24" fill="white" transform="translate(36)"/>
</clipPath>
<clipPath id="clip1_739_199">
<rect width="24" height="24" fill="white" transform="translate(84)"/>
</clipPath>
<clipPath id="clip2_739_199">
<rect width="24" height="24" fill="white" transform="translate(132)"/>
</clipPath>
<clipPath id="clip3_739_199">
<rect width="24" height="24" fill="white" transform="translate(180)"/>
</clipPath>
<clipPath id="clip4_739_199">
<rect width="24" height="24" fill="white" transform="translate(228)"/>
</clipPath>
<clipPath id="clip5_739_199">
<rect width="24" height="24" fill="white" transform="translate(276)"/>
</clipPath>
</defs>
</svg>
