<svg width="477" height="69" viewBox="0 0 477 69" fill="none" xmlns="http://www.w3.org/2000/svg">
<path d="M232.522 14.5191C234.395 14.1469 236.261 14.0384 238.072 14.1511L238.994 7.19104C236.435 6.99308 233.801 7.13126 231.157 7.65671C226.275 8.6274 221.932 10.7828 218.393 13.7423L223.241 18.8641C225.835 16.7542 228.983 15.2194 232.522 14.5191Z" fill="white"/>
<path d="M236.474 0C217.491 0 202.094 15.3891 202.094 34.3802C202.094 53.363 217.483 68.7604 236.474 68.7604C255.465 68.7604 270.854 53.3713 270.854 34.3802C270.854 15.3891 255.465 0 236.474 0ZM236.474 64.8204C219.667 64.8204 206.034 51.187 206.034 34.3802C206.034 17.5651 219.659 3.94 236.474 3.94C253.281 3.94 266.914 17.5651 266.914 34.3802C266.914 51.187 253.289 64.8204 236.474 64.8204Z" fill="#00FFFF"/>
<path d="M215.861 37.3988C214.923 30.9431 217.253 24.6708 221.696 20.2587L216.848 15.1369C210.624 21.1603 207.381 29.8663 208.8 38.7997L215.861 37.3988Z" fill="white"/>
<path d="M256.615 39.1425C254.677 46.5051 248.559 52.5561 240.396 54.1759C229.456 56.3426 218.873 49.7783 216.255 39.3957L209.194 40.7966C212.572 54.9669 226.917 63.9783 241.76 61.0384C252.874 58.835 261.161 50.5313 263.672 40.4625L256.615 39.1425Z" fill="white"/>
<path d="M240.16 14.3933C248.371 15.7512 255.213 21.8645 256.884 30.2932C257.344 32.6138 257.367 34.9231 257.029 37.1406L264.094 38.4608C264.619 35.3658 264.595 32.1412 263.954 28.8925C261.677 17.4303 252.285 9.13222 241.082 7.4332L240.16 14.3933Z" fill="white"/>
<path d="M59.1579 43.8523V12.7197H75.3383V43.8523C75.3383 45.7893 76.3439 47.1246 78.3468 47.85C80.3498 48.5754 83.7375 48.938 88.5018 48.938C93.2084 48.938 96.5219 48.5754 98.4672 47.85C100.396 47.1246 101.369 45.7893 101.369 43.8523V12.7197H117.541V43.8523C117.541 52.1362 107.79 56.274 88.2957 56.274C68.8678 56.2822 59.1579 52.1362 59.1579 43.8523Z" fill="#00FFFF"/>
<path d="M176.847 55.6224L161.499 40.4147L146.035 55.6224H127.374L152.16 33.7463L128.413 12.7275H147.074L161.499 27.0038L175.8 12.7275H194.469L170.722 33.7463L195.607 55.6224H176.847Z" fill="#00FFFF"/>
<path d="M298.03 25.8828V55.6224H281.124V12.7275H300.346L338.559 42.0055V12.7275H355.481V55.6224H336.243L298.03 25.8828Z" fill="#00FFFF"/>
<path d="M393.884 12.7275H373.055V55.6224H393.884V12.7275Z" fill="#00FFFF"/>
<path d="M476.69 55.6224L445.599 32.6831L473.608 12.7275H452.762L428.792 30.1938V12.7275H411.029V55.6224H428.792V35.6916L455.045 55.6224H476.69Z" fill="#00FFFF"/>
<path d="M16.1804 12.7275V48.2864H49.2582V55.6224H0V12.7275H16.1804Z" fill="#00FFFF"/>
</svg>
