<svg width="12" height="8" viewBox="0 0 12 8" fill="none" xmlns="http://www.w3.org/2000/svg">
<path d="M3.32955 7.13636C2.73864 7.13636 2.22017 6.99574 1.77415 6.71449C1.33097 6.43324 0.984375 6.03977 0.734375 5.53409C0.487216 5.02841 0.363636 4.4375 0.363636 3.76136C0.363636 3.07955 0.487216 2.48437 0.734375 1.97585C0.984375 1.46733 1.33097 1.07244 1.77415 0.791193C2.22017 0.509943 2.73864 0.369318 3.32955 0.369318C3.92045 0.369318 4.4375 0.509943 4.88068 0.791193C5.3267 1.07244 5.6733 1.46733 5.92045 1.97585C6.17045 2.48437 6.29545 3.07955 6.29545 3.76136C6.29545 4.4375 6.17045 5.02841 5.92045 5.53409C5.6733 6.03977 5.3267 6.43324 4.88068 6.71449C4.4375 6.99574 3.92045 7.13636 3.32955 7.13636ZM3.32955 6.23295C3.77841 6.23295 4.14773 6.1179 4.4375 5.88778C4.72727 5.65767 4.94176 5.35511 5.08097 4.98011C5.22017 4.60511 5.28977 4.19886 5.28977 3.76136C5.28977 3.32386 5.22017 2.91619 5.08097 2.53835C4.94176 2.16051 4.72727 1.85511 4.4375 1.62216C4.14773 1.3892 3.77841 1.27273 3.32955 1.27273C2.88068 1.27273 2.51136 1.3892 2.22159 1.62216C1.93182 1.85511 1.71733 2.16051 1.57812 2.53835C1.43892 2.91619 1.36932 3.32386 1.36932 3.76136C1.36932 4.19886 1.43892 4.60511 1.57812 4.98011C1.71733 5.35511 1.93182 5.65767 2.22159 5.88778C2.51136 6.1179 2.88068 6.23295 3.32955 6.23295ZM7.83061 7V0.454545H8.8022V1.44318H8.87038C8.9897 1.11932 9.20561 0.856534 9.51811 0.654829C9.83061 0.453125 10.1829 0.352272 10.5749 0.352272C10.6488 0.352272 10.7411 0.353693 10.8519 0.356534C10.9627 0.359375 11.0465 0.363636 11.1033 0.369318V1.39205C11.0692 1.38352 10.9911 1.37074 10.869 1.35369C10.7496 1.33381 10.6232 1.32386 10.4897 1.32386C10.1715 1.32386 9.88743 1.39062 9.63743 1.52415C9.39027 1.65483 9.19425 1.83665 9.04936 2.0696C8.90732 2.29972 8.83629 2.5625 8.83629 2.85795V7H7.83061Z" fill="white"/>
</svg>
