<svg width="622" height="95" viewBox="0 0 622 95" fill="none" xmlns="http://www.w3.org/2000/svg">
<g clip-path="url(#clip0_739_197)">
<path d="M22.688 43.3015V47.0295H26.752V48.2295H22.688V52.0695H27.232V53.2695H21.232V42.1015H27.232V43.3015H22.688ZM40.1391 44.3415C40.8218 44.3415 41.4298 44.4855 41.9631 44.7735C42.4965 45.0509 42.9178 45.4722 43.2271 46.0375C43.5365 46.6029 43.6911 47.2909 43.6911 48.1015V53.2695H42.2511V48.3095C42.2511 47.4349 42.0325 46.7682 41.5951 46.3095C41.1685 45.8402 40.5871 45.6055 39.8511 45.6055C39.0938 45.6055 38.4911 45.8509 38.0431 46.3415C37.5951 46.8215 37.3711 47.5202 37.3711 48.4375V53.2695H35.9311V48.3095C35.9311 47.4349 35.7125 46.7682 35.2751 46.3095C34.8485 45.8402 34.2671 45.6055 33.5311 45.6055C32.7738 45.6055 32.1711 45.8509 31.7231 46.3415C31.2751 46.8215 31.0511 47.5202 31.0511 48.4375V53.2695H29.5951V44.5015H31.0511V45.7655C31.3391 45.3069 31.7231 44.9549 32.2031 44.7095C32.6938 44.4642 33.2325 44.3415 33.8191 44.3415C34.5551 44.3415 35.2058 44.5069 35.7711 44.8375C36.3365 45.1682 36.7578 45.6535 37.0351 46.2935C37.2805 45.6749 37.6858 45.1949 38.2511 44.8535C38.8165 44.5122 39.4458 44.3415 40.1391 44.3415ZM45.6955 48.8535C45.6955 47.9575 45.8768 47.1735 46.2395 46.5015C46.6022 45.8189 47.0982 45.2909 47.7275 44.9175C48.3675 44.5442 49.0768 44.3575 49.8555 44.3575C50.6235 44.3575 51.2902 44.5229 51.8555 44.8535C52.4208 45.1842 52.8422 45.6002 53.1195 46.1015V44.5015H54.5915V53.2695H53.1195V51.6375C52.8315 52.1495 52.3995 52.5762 51.8235 52.9175C51.2582 53.2482 50.5968 53.4135 49.8395 53.4135C49.0608 53.4135 48.3568 53.2215 47.7275 52.8375C47.0982 52.4535 46.6022 51.9149 46.2395 51.2215C45.8768 50.5282 45.6955 49.7389 45.6955 48.8535ZM53.1195 48.8695C53.1195 48.2082 52.9862 47.6322 52.7195 47.1415C52.4528 46.6509 52.0902 46.2775 51.6315 46.0215C51.1835 45.7549 50.6875 45.6215 50.1435 45.6215C49.5995 45.6215 49.1035 45.7495 48.6555 46.0055C48.2075 46.2615 47.8502 46.6349 47.5835 47.1255C47.3168 47.6162 47.1835 48.1922 47.1835 48.8535C47.1835 49.5255 47.3168 50.1122 47.5835 50.6135C47.8502 51.1042 48.2075 51.4829 48.6555 51.7495C49.1035 52.0055 49.5995 52.1335 50.1435 52.1335C50.6875 52.1335 51.1835 52.0055 51.6315 51.7495C52.0902 51.4829 52.4528 51.1042 52.7195 50.6135C52.9862 50.1122 53.1195 49.5309 53.1195 48.8695ZM57.964 43.0775C57.6867 43.0775 57.452 42.9815 57.26 42.7895C57.068 42.5975 56.972 42.3629 56.972 42.0855C56.972 41.8082 57.068 41.5735 57.26 41.3815C57.452 41.1895 57.6867 41.0935 57.964 41.0935C58.2307 41.0935 58.4547 41.1895 58.636 41.3815C58.828 41.5735 58.924 41.8082 58.924 42.0855C58.924 42.3629 58.828 42.5975 58.636 42.7895C58.4547 42.9815 58.2307 43.0775 57.964 43.0775ZM58.668 44.5015V53.2695H57.212V44.5015H58.668ZM62.7655 41.4295V53.2695H61.3095V41.4295H62.7655Z" fill="white"/>
<path d="M22.688 43.3015V42.3015H21.688V43.3015H22.688ZM22.688 47.0295H21.688V48.0295H22.688V47.0295ZM26.752 47.0295H27.752V46.0295H26.752V47.0295ZM26.752 48.2295V49.2295H27.752V48.2295H26.752ZM22.688 48.2295V47.2295H21.688V48.2295H22.688ZM22.688 52.0695H21.688V53.0695H22.688V52.0695ZM27.232 52.0695H28.232V51.0695H27.232V52.0695ZM27.232 53.2695V54.2695H28.232V53.2695H27.232ZM21.232 53.2695H20.232V54.2695H21.232V53.2695ZM21.232 42.1015V41.1015H20.232V42.1015H21.232ZM27.232 42.1015H28.232V41.1015H27.232V42.1015ZM27.232 43.3015V44.3015H28.232V43.3015H27.232ZM21.688 43.3015V47.0295H23.688V43.3015H21.688ZM22.688 48.0295H26.752V46.0295H22.688V48.0295ZM25.752 47.0295V48.2295H27.752V47.0295H25.752ZM26.752 47.2295H22.688V49.2295H26.752V47.2295ZM21.688 48.2295V52.0695H23.688V48.2295H21.688ZM22.688 53.0695H27.232V51.0695H22.688V53.0695ZM26.232 52.0695V53.2695H28.232V52.0695H26.232ZM27.232 52.2695H21.232V54.2695H27.232V52.2695ZM22.232 53.2695V42.1015H20.232V53.2695H22.232ZM21.232 43.1015H27.232V41.1015H21.232V43.1015ZM26.232 42.1015V43.3015H28.232V42.1015H26.232ZM27.232 42.3015H22.688V44.3015H27.232V42.3015ZM41.9631 44.7735L41.488 45.6534L41.4948 45.6571L41.5018 45.6607L41.9631 44.7735ZM43.2271 46.0375L42.3499 46.5175V46.5175L43.2271 46.0375ZM43.6911 53.2695V54.2695H44.6911V53.2695H43.6911ZM42.2511 53.2695H41.2511V54.2695H42.2511V53.2695ZM41.5951 46.3095L40.8552 46.9822L40.8632 46.991L40.8714 46.9996L41.5951 46.3095ZM38.0431 46.3415L38.7742 47.0239L38.7816 47.0158L38.0431 46.3415ZM37.3711 53.2695V54.2695H38.3711V53.2695H37.3711ZM35.9311 53.2695H34.9311V54.2695H35.9311V53.2695ZM35.2751 46.3095L34.5352 46.9822L34.5432 46.991L34.5514 46.9996L35.2751 46.3095ZM31.7231 46.3415L32.4542 47.0239L32.4616 47.0158L31.7231 46.3415ZM31.0511 53.2695V54.2695H32.0511V53.2695H31.0511ZM29.5951 53.2695H28.5951V54.2695H29.5951V53.2695ZM29.5951 44.5015V43.5015H28.5951V44.5015H29.5951ZM31.0511 44.5015H32.0511V43.5015H31.0511V44.5015ZM31.0511 45.7655H30.0511V49.2386L31.898 46.2973L31.0511 45.7655ZM32.2031 44.7095L31.7559 43.8151L31.748 43.8191L32.2031 44.7095ZM35.7711 44.8375L35.2662 45.7007L35.7711 44.8375ZM37.0351 46.2935L36.1176 46.6911L37.0761 48.9031L37.9647 46.6622L37.0351 46.2935ZM38.2511 44.8535L38.768 45.7096V45.7096L38.2511 44.8535ZM40.1391 45.3415C40.6772 45.3415 41.1182 45.4538 41.488 45.6534L42.4383 43.8936C41.7413 43.5173 40.9664 43.3415 40.1391 43.3415V45.3415ZM41.5018 45.6607C41.8463 45.8399 42.1285 46.113 42.3499 46.5175L44.1044 45.5575C43.7071 44.8314 43.1466 44.2618 42.4245 43.8863L41.5018 45.6607ZM42.3499 46.5175C42.5605 46.9025 42.6911 47.4162 42.6911 48.1015H44.6911C44.6911 47.1656 44.5124 46.3033 44.1044 45.5575L42.3499 46.5175ZM42.6911 48.1015V53.2695H44.6911V48.1015H42.6911ZM43.6911 52.2695H42.2511V54.2695H43.6911V52.2695ZM43.2511 53.2695V48.3095H41.2511V53.2695H43.2511ZM43.2511 48.3095C43.2511 47.2768 42.9917 46.3251 42.3189 45.6195L40.8714 46.9996C41.0732 47.2113 41.2511 47.5929 41.2511 48.3095H43.2511ZM42.3351 45.6369C41.6879 44.925 40.8192 44.6055 39.8511 44.6055V46.6055C40.355 46.6055 40.649 46.7554 40.8552 46.9822L42.3351 45.6369ZM39.8511 44.6055C38.8562 44.6055 37.9695 44.9391 37.3046 45.6673L38.7816 47.0158C39.0128 46.7626 39.3314 46.6055 39.8511 46.6055V44.6055ZM37.3121 45.6592C36.6328 46.387 36.3711 47.368 36.3711 48.4375H38.3711C38.3711 47.6724 38.5575 47.2561 38.7742 47.0238L37.3121 45.6592ZM36.3711 48.4375V53.2695H38.3711V48.4375H36.3711ZM37.3711 52.2695H35.9311V54.2695H37.3711V52.2695ZM36.9311 53.2695V48.3095H34.9311V53.2695H36.9311ZM36.9311 48.3095C36.9311 47.2768 36.6717 46.3251 35.9989 45.6195L34.5514 46.9996C34.7532 47.2113 34.9311 47.5929 34.9311 48.3095H36.9311ZM36.0151 45.6369C35.3679 44.925 34.4992 44.6055 33.5311 44.6055V46.6055C34.035 46.6055 34.329 46.7554 34.5352 46.9822L36.0151 45.6369ZM33.5311 44.6055C32.5362 44.6055 31.6495 44.9391 30.9846 45.6673L32.4616 47.0158C32.6928 46.7626 33.0114 46.6055 33.5311 46.6055V44.6055ZM30.9921 45.6592C30.3128 46.387 30.0511 47.368 30.0511 48.4375H32.0511C32.0511 47.6724 32.2375 47.2561 32.4542 47.0238L30.9921 45.6592ZM30.0511 48.4375V53.2695H32.0511V48.4375H30.0511ZM31.0511 52.2695H29.5951V54.2695H31.0511V52.2695ZM30.5951 53.2695V44.5015H28.5951V53.2695H30.5951ZM29.5951 45.5015H31.0511V43.5015H29.5951V45.5015ZM30.0511 44.5015V45.7655H32.0511V44.5015H30.0511ZM31.898 46.2973C32.0906 45.9906 32.3396 45.7628 32.6582 45.6L31.748 43.8191C31.1067 44.1469 30.5876 44.6232 30.2042 45.2338L31.898 46.2973ZM32.6503 45.604C32.9926 45.4328 33.3767 45.3415 33.8191 45.3415V43.3415C33.0882 43.3415 32.395 43.4956 31.7559 43.8151L32.6503 45.604ZM33.8191 45.3415C34.4001 45.3415 34.8724 45.4703 35.2662 45.7007L36.276 43.9743C35.5392 43.5434 34.7101 43.3415 33.8191 43.3415V45.3415ZM35.2662 45.7007C35.6357 45.9168 35.919 46.2328 36.1176 46.6911L37.9527 45.8959C37.5966 45.0743 37.0372 44.4196 36.276 43.9743L35.2662 45.7007ZM37.9647 46.6622C38.1301 46.245 38.3914 45.937 38.768 45.7096L37.7343 43.9975C36.9802 44.4527 36.4308 45.1047 36.1055 45.9249L37.9647 46.6622ZM38.768 45.7096C39.1694 45.4672 39.6185 45.3415 40.1391 45.3415V43.3415C39.2731 43.3415 38.4635 43.5572 37.7343 43.9975L38.768 45.7096ZM46.2395 46.5015L47.1195 46.9765L47.1226 46.9707L46.2395 46.5015ZM47.7275 44.9175L47.2236 44.0537L47.2173 44.0575L47.7275 44.9175ZM51.8555 44.8535L51.3506 45.7167L51.8555 44.8535ZM53.1195 46.1015L52.2445 46.5856L54.1195 46.1015H53.1195ZM53.1195 44.5015V43.5015H52.1195V44.5015H53.1195ZM54.5915 44.5015H55.5915V43.5015H54.5915V44.5015ZM54.5915 53.2695V54.2695H55.5915V53.2695H54.5915ZM53.1195 53.2695H52.1195V54.2695H53.1195V53.2695ZM53.1195 51.6375H54.1195V47.82L52.2479 51.1473L53.1195 51.6375ZM51.8235 52.9175L52.3284 53.7807L52.3333 53.7778L51.8235 52.9175ZM47.7275 52.8375L47.2066 53.6912L47.7275 52.8375ZM46.2395 51.2215L47.1256 50.758L46.2395 51.2215ZM51.6315 46.0215L51.12 46.8808L51.132 46.8879L51.1441 46.8947L51.6315 46.0215ZM48.6555 46.0055L48.1594 45.1373V45.1373L48.6555 46.0055ZM47.5835 47.1255L48.4621 47.603L47.5835 47.1255ZM47.5835 50.6135L46.7006 51.0832L46.7049 51.091L47.5835 50.6135ZM48.6555 51.7495L48.144 52.6088L48.1516 52.6134L48.1594 52.6178L48.6555 51.7495ZM51.6315 51.7495L52.1277 52.6178L52.1341 52.614L51.6315 51.7495ZM52.7195 50.6135L53.5982 51.0911L53.6024 51.0831L52.7195 50.6135ZM46.6955 48.8535C46.6955 48.0945 46.8482 47.4791 47.1195 46.9765L45.3595 46.0266C44.9054 46.8679 44.6955 47.8205 44.6955 48.8535H46.6955ZM47.1226 46.9707C47.4043 46.4405 47.7752 46.0519 48.2377 45.7776L47.2173 44.0575C46.4211 44.5298 45.8001 45.1972 45.3564 46.0324L47.1226 46.9707ZM48.2314 45.7813C48.7105 45.5018 49.2445 45.3575 49.8555 45.3575V43.3575C48.9092 43.3575 48.0245 43.5866 47.2236 44.0538L48.2314 45.7813ZM49.8555 45.3575C50.477 45.3575 50.9631 45.4901 51.3506 45.7167L52.3604 43.9903C51.6172 43.5557 50.77 43.3575 49.8555 43.3575V45.3575ZM51.3506 45.7167C51.7833 45.9698 52.0661 46.2631 52.2445 46.5856L53.9945 45.6175C53.6183 44.9373 53.0583 44.3986 52.3604 43.9903L51.3506 45.7167ZM54.1195 46.1015V44.5015H52.1195V46.1015H54.1195ZM53.1195 45.5015H54.5915V43.5015H53.1195V45.5015ZM53.5915 44.5015V53.2695H55.5915V44.5015H53.5915ZM54.5915 52.2695H53.1195V54.2695H54.5915V52.2695ZM54.1195 53.2695V51.6375H52.1195V53.2695H54.1195ZM52.2479 51.1473C52.0574 51.486 51.7602 51.7927 51.3137 52.0572L52.3333 53.7778C53.0388 53.3597 53.6056 52.8131 53.9911 52.1278L52.2479 51.1473ZM51.3186 52.0543C50.929 52.2822 50.4475 52.4135 49.8395 52.4135V54.4135C50.7462 54.4135 51.5873 54.2142 52.3284 53.7807L51.3186 52.0543ZM49.8395 52.4135C49.2338 52.4135 48.7119 52.2667 48.2484 51.9839L47.2066 53.6912C48.0018 54.1764 48.8878 54.4135 49.8395 54.4135V52.4135ZM48.2484 51.9839C47.7835 51.7003 47.4095 51.3009 47.1256 50.758L45.3534 51.685C45.7948 52.5289 46.4128 53.2068 47.2066 53.6912L48.2484 51.9839ZM47.1256 50.758C46.8471 50.2256 46.6955 49.5989 46.6955 48.8535H44.6955C44.6955 49.8788 44.9066 50.8308 45.3534 51.685L47.1256 50.758ZM54.1195 48.8695C54.1195 48.0721 53.9579 47.3261 53.5981 46.664L51.8409 47.619C52.0144 47.9383 52.1195 48.3443 52.1195 48.8695H54.1195ZM53.5981 46.664C53.2471 46.0181 52.7533 45.5025 52.1189 45.1483L51.1441 46.8947C51.427 47.0526 51.6586 47.2837 51.8409 47.619L53.5981 46.664ZM52.143 45.1622C51.5334 44.7994 50.8594 44.6215 50.1435 44.6215V46.6215C50.5156 46.6215 50.8336 46.7103 51.12 46.8808L52.143 45.1622ZM50.1435 44.6215C49.4353 44.6215 48.7668 44.7902 48.1594 45.1373L49.1516 46.8738C49.4402 46.7089 49.7637 46.6215 50.1435 46.6215V44.6215ZM48.1594 45.1373C47.5368 45.493 47.0527 46.0081 46.7049 46.648L48.4621 47.603C48.6477 47.2617 48.8782 47.03 49.1516 46.8738L48.1594 45.1373ZM46.7049 46.648C46.3451 47.3101 46.1835 48.0561 46.1835 48.8535H48.1835C48.1835 48.3283 48.2886 47.9223 48.4621 47.603L46.7049 46.648ZM46.1835 48.8535C46.1835 49.6593 46.3441 50.4129 46.7006 51.0831L48.4664 50.1439C48.2896 49.8115 48.1835 49.3918 48.1835 48.8535H46.1835ZM46.7049 51.091C47.051 51.728 47.5305 52.2437 48.144 52.6088L49.167 50.8902C48.8845 50.7221 48.6493 50.4804 48.4621 50.136L46.7049 51.091ZM48.1594 52.6178C48.7668 52.9649 49.4353 53.1335 50.1435 53.1335V51.1335C49.7637 51.1335 49.4402 51.0462 49.1516 50.8813L48.1594 52.6178ZM50.1435 53.1335C50.8517 53.1335 51.5202 52.9649 52.1276 52.6178L51.1354 50.8813C50.8468 51.0462 50.5233 51.1335 50.1435 51.1335V53.1335ZM52.1341 52.614C52.7597 52.2503 53.2488 51.7339 53.5981 51.091L51.8409 50.136C51.6569 50.4745 51.4206 50.7154 51.1289 50.885L52.1341 52.614ZM53.6024 51.0831C53.9577 50.4151 54.1195 49.6676 54.1195 48.8695H52.1195C52.1195 49.3942 52.0146 49.8093 51.8366 50.1439L53.6024 51.0831ZM57.26 42.7895L57.9671 42.0824L57.26 42.7895ZM57.26 41.3815L57.9671 42.0886L57.26 41.3815ZM58.636 41.3815L57.909 42.0682L57.9188 42.0785L57.9289 42.0886L58.636 41.3815ZM58.636 42.7895L57.9289 42.0824L57.9188 42.0925L57.909 42.1029L58.636 42.7895ZM58.668 44.5015H59.668V43.5015H58.668V44.5015ZM58.668 53.2695V54.2695H59.668V53.2695H58.668ZM57.212 53.2695H56.212V54.2695H57.212V53.2695ZM57.212 44.5015V43.5015H56.212V44.5015H57.212ZM57.964 42.0775C57.9525 42.0775 57.9477 42.0766 57.9483 42.0767C57.949 42.0768 57.9529 42.0777 57.9586 42.08C57.9644 42.0823 57.9689 42.0849 57.9715 42.0867C57.9739 42.0884 57.9724 42.0877 57.9671 42.0824L56.5529 43.4966C56.9369 43.8806 57.4278 44.0775 57.964 44.0775V42.0775ZM57.9671 42.0824C57.9618 42.0772 57.9612 42.0756 57.9628 42.0781C57.9646 42.0807 57.9672 42.0852 57.9695 42.0909C57.9719 42.0966 57.9727 42.1005 57.9729 42.1012C57.973 42.1018 57.972 42.097 57.972 42.0855H55.972C55.972 42.6217 56.1689 43.1127 56.5529 43.4966L57.9671 42.0824ZM57.972 42.0855C57.972 42.0741 57.973 42.0693 57.9729 42.0698C57.9727 42.0706 57.9719 42.0745 57.9695 42.0802C57.9672 42.0859 57.9646 42.0904 57.9628 42.093C57.9612 42.0955 57.9618 42.0939 57.9671 42.0886L56.5529 40.6744C56.1689 41.0584 55.972 41.5493 55.972 42.0855H57.972ZM57.9671 42.0886C57.9724 42.0834 57.9739 42.0827 57.9715 42.0844C57.9689 42.0861 57.9644 42.0887 57.9586 42.0911C57.9529 42.0934 57.949 42.0943 57.9483 42.0944C57.9477 42.0945 57.9525 42.0935 57.964 42.0935V40.0935C57.4278 40.0935 56.9369 40.2904 56.5529 40.6744L57.9671 42.0886ZM57.964 42.0935C57.9705 42.0935 57.97 42.0941 57.964 42.0929C57.9578 42.0917 57.9487 42.0892 57.9381 42.0847C57.9275 42.0801 57.9188 42.075 57.9128 42.0707C57.9069 42.0665 57.9058 42.0648 57.909 42.0682L59.363 40.6949C58.9907 40.3007 58.5028 40.0935 57.964 40.0935V42.0935ZM57.9289 42.0886C57.9342 42.0939 57.9348 42.0955 57.9332 42.093C57.9314 42.0904 57.9288 42.0859 57.9265 42.0802C57.9241 42.0745 57.9233 42.0706 57.9231 42.0698C57.923 42.0693 57.924 42.0741 57.924 42.0855H59.924C59.924 41.5493 59.7271 41.0584 59.3431 40.6744L57.9289 42.0886ZM57.924 42.0855C57.924 42.097 57.923 42.1018 57.9231 42.1012C57.9233 42.1005 57.9241 42.0966 57.9265 42.0909C57.9288 42.0852 57.9314 42.0807 57.9332 42.0781C57.9348 42.0756 57.9342 42.0772 57.9289 42.0824L59.3431 43.4966C59.7271 43.1127 59.924 42.6217 59.924 42.0855H57.924ZM57.909 42.1029C57.9058 42.1063 57.9069 42.1045 57.9128 42.1004C57.9188 42.096 57.9275 42.0909 57.9381 42.0864C57.9487 42.0819 57.9578 42.0793 57.964 42.0781C57.97 42.077 57.9705 42.0775 57.964 42.0775V44.0775C58.5028 44.0775 58.9907 43.8704 59.363 43.4762L57.909 42.1029ZM57.668 44.5015V53.2695H59.668V44.5015H57.668ZM58.668 52.2695H57.212V54.2695H58.668V52.2695ZM58.212 53.2695V44.5015H56.212V53.2695H58.212ZM57.212 45.5015H58.668V43.5015H57.212V45.5015ZM62.7655 41.4295H63.7655V40.4295H62.7655V41.4295ZM62.7655 53.2695V54.2695H63.7655V53.2695H62.7655ZM61.3095 53.2695H60.3095V54.2695H61.3095V53.2695ZM61.3095 41.4295V40.4295H60.3095V41.4295H61.3095ZM61.7655 41.4295V53.2695H63.7655V41.4295H61.7655ZM62.7655 52.2695H61.3095V54.2695H62.7655V52.2695ZM62.3095 53.2695V41.4295H60.3095V53.2695H62.3095ZM61.3095 42.4295H62.7655V40.4295H61.3095V42.4295Z" fill="#2C2C2C"/>
<rect x="0.5" y="0.789062" width="621" height="92.9617" rx="11.5" stroke="white"/>
</g>
<defs>
<clipPath id="clip0_739_197">
<rect width="622" height="93.9617" fill="white" transform="translate(0 0.289062)"/>
</clipPath>
</defs>
</svg>
